<svg version="1.1" xmlns="http://www.w3.org/2000/svg" style="display: block;" viewBox="0 0 2048 2048" width="1024" height="1024">
<path transform="translate(0,0)" fill="rgb(29,40,58)" d="M 0 0 L 2048 0 L 2048 2048 L 0 2048 L 0 0 z"/>
<path transform="translate(0,0)" fill="rgb(238,219,217)" d="M 1066.47 1743.78 L 1067.94 1743.99 C 1069.05 1745.86 1068.79 1744.86 1068.78 1746.96 C 1058 1759.01 1027.69 1773.92 1012.39 1781.23 C 1010.78 1780.91 1011.71 1781.22 1009.74 1779.93 C 1009.83 1779.65 1009.89 1779.35 1010.02 1779.08 C 1014.01 1770.79 1056.96 1747.94 1066.47 1743.78 z"/>
<path transform="translate(0,0)" fill="rgb(238,219,217)" d="M 750.044 426.998 C 751.362 428.395 751.202 428.607 751.59 430.391 C 746.973 441.869 662.105 485.615 646.556 492.601 L 645.738 492.567 L 645.371 491.229 C 665.083 466.769 719.951 438.859 750.044 426.998 z"/>
<path transform="translate(0,0)" fill="rgb(238,219,217)" d="M 991.225 1786.71 C 993.228 1786.72 993.938 1786.93 995.56 1788.11 L 995.72 1790.14 C 983.322 1809.25 882.72 1865.34 857.293 1877.72 C 856.331 1878.19 855.157 1878.43 854.13 1878.74 L 854.049 1877.8 C 870.759 1857.76 965.018 1800.05 991.225 1786.71 z"/>
<path transform="translate(0,0)" fill="rgb(238,219,217)" d="M 1746.64 581.634 C 1749.53 581.878 1751.91 582.267 1754.42 583.766 C 1761.6 588.051 1767.98 595.636 1773.17 602.091 C 1790.47 623.58 1851.27 712.853 1857.69 735.402 C 1844.51 728.622 1760.56 603.141 1746.64 581.634 z"/>
<path transform="translate(0,0)" fill="rgb(238,219,217)" d="M 1814.87 1267.15 L 1815.42 1267.62 C 1805.62 1284.33 1625.7 1396.99 1598.21 1410.1 C 1596.98 1409.09 1597.49 1409.8 1597.16 1407.71 C 1605.54 1390.78 1786.65 1283.2 1814.87 1267.15 z"/>
<path transform="translate(0,0)" fill="rgb(238,219,217)" d="M 351.959 1536.7 C 361.846 1540.28 372.844 1553.87 379.166 1562.08 C 387.346 1572.69 394.312 1584.58 401.539 1595.87 C 417.708 1621.12 433.072 1646.7 448.279 1672.53 C 462.51 1696.7 478.608 1721.14 490.562 1746.5 C 478.107 1740.43 363.282 1561.32 351.959 1536.7 z"/>
<path transform="translate(0,0)" fill="rgb(238,219,217)" d="M 1566.66 305.027 C 1574.86 309.333 1581.04 318.251 1586.68 325.398 C 1597.9 339.63 1608.02 354.828 1618.39 369.685 A 2629.62 2629.62 0 0 1 1685.27 469.566 C 1693.89 482.892 1710.52 505.528 1715.38 519.527 C 1713.35 518.837 1711.28 518.062 1709.57 516.729 C 1691.15 502.362 1568.35 320.04 1566.66 305.027 z"/>
<path transform="translate(0,0)" fill="rgb(238,219,217)" d="M 173.207 1252.4 C 185.43 1260.56 277.6 1404.27 289.384 1423.89 C 299.428 1440.61 311.112 1459.16 317.782 1477.37 C 317.457 1477.18 317.116 1477.02 316.809 1476.8 C 309.832 1471.92 303.365 1460.58 298.193 1453.64 A 1879.71 1879.71 0 0 1 219.828 1340.09 C 208.103 1321.82 195.868 1303.47 185.607 1284.33 C 180.047 1273.96 175.878 1263.85 173.207 1252.4 z"/>
<path transform="translate(0,0)" fill="rgb(238,219,217)" d="M 1071.01 231.834 L 1072.52 232.674 L 1072.03 234.463 C 1064.01 242.272 1053.27 248.476 1043.97 254.748 C 1018.19 272.129 991.782 288.331 965.213 304.448 C 934.185 323.269 903.371 342.289 871.864 360.312 C 853.347 370.905 834.505 382.223 814.492 389.758 L 813.113 389.094 C 819.209 377.665 981.707 280.616 1003.83 267.928 C 1025.76 255.348 1048.29 242.94 1071.01 231.834 z"/>
<path transform="translate(0,0)" fill="rgb(238,219,217)" d="M 583.214 535.843 C 584.871 535.826 583.958 535.697 585.906 536.488 C 580.343 546.287 366.882 672.462 337.964 688.904 A 933.749 933.749 0 0 1 278.289 720.389 L 276.287 720.465 L 275.509 719.318 C 281.156 709.016 480.194 590.536 503.927 577.092 C 529.766 562.454 556.094 547.957 583.214 535.843 z"/>
<path transform="translate(0,0)" fill="rgb(238,219,217)" d="M 628.775 320.992 L 630.595 322.413 L 630.302 324.174 C 616.083 334.789 600.412 343.83 585.277 353.075 L 532.102 385.921 C 466.056 426.656 399.85 468.075 330.439 502.912 L 329.422 502.742 L 329.654 501.07 C 341.322 490.237 356.163 481.638 369.493 473.009 A 2664.76 2664.76 0 0 1 437.614 429.967 C 472.758 408.268 507.704 386.421 543.246 365.363 C 570.833 349.018 598.509 332.018 628.775 320.992 z"/>
<path transform="translate(0,0)" fill="rgb(238,219,217)" d="M 1943.52 1279.02 L 1944.37 1279.9 C 1938.42 1292.95 1691.34 1445.21 1664.99 1461.26 A 2321.66 2321.66 0 0 1 1596.58 1501.35 L 1595.77 1500.36 C 1607.56 1486.1 1668.23 1449.64 1687.34 1437.21 A 6058.36 6058.36 0 0 1 1830.09 1345.5 C 1866.96 1322.16 1904.06 1297.81 1943.52 1279.02 z"/>
<path transform="translate(0,0)" fill="rgb(238,219,217)" d="M 413.565 551.799 L 415.498 552.111 L 416.223 553.647 C 411.63 560.603 399.559 565.516 392.669 570.166 C 345.69 601.873 296.854 631.268 248.166 660.272 C 204.625 686.21 161.075 712.551 115.297 734.413 L 113.655 734.398 L 114.237 732.567 C 134.337 714.382 171.934 692.726 195.62 677.746 C 266.72 632.78 337.954 588.859 413.565 551.799 z"/>
<path transform="translate(0,0)" fill="rgb(238,219,217)" d="M 1641.7 1559.06 L 1642.43 1559.69 C 1632.68 1575.71 1389.55 1726.13 1353.67 1746.71 A 323.601 323.601 0 0 1 1317.12 1765.05 C 1316.49 1764.14 1316.91 1764.84 1316.43 1762.71 C 1321.48 1754.76 1352.36 1737.25 1361.76 1731.03 C 1426.23 1688.34 1490.71 1646.13 1557.26 1606.73 C 1584.92 1590.35 1612.88 1573.31 1641.7 1559.06 z"/>
<path transform="translate(0,0)" fill="rgb(238,219,217)" d="M 293.547 290.161 C 300.176 289.499 305.222 290.228 311.29 293.214 A 33.0311 33.0311 0 0 1 328.456 313.83 C 331.129 323.13 330.083 333.579 325.079 341.92 C 318.325 353.176 307.206 357.84 295.149 361.098 C 286.514 361.592 278.077 360.376 270.656 355.636 A 29.5324 29.5324 0 0 1 257.449 336.54 C 255.519 327.168 258.138 317.252 263.313 309.343 C 270.601 298.204 280.799 292.653 293.547 290.161 z"/>
<path transform="translate(0,0)" fill="rgb(29,40,58)" d="M 291.13 302.144 C 296.328 301.661 301.287 301.544 306.177 303.674 C 311.255 305.887 314.909 309.967 316.657 315.202 C 318.8 321.616 318.147 329.068 315.043 335.064 C 310.672 343.509 303.843 347.312 295.093 350.098 C 290.21 350.908 285.559 350.193 280.919 348.491 C 276.311 346.8 272.851 343.735 270.872 339.193 C 268.394 333.503 268.749 326.915 270.985 321.213 C 274.811 311.459 281.995 306.305 291.13 302.144 z"/>
<path transform="translate(0,0)" fill="rgb(238,219,217)" d="M 1552.33 1775.19 C 1560.53 1774.64 1568.34 1775.89 1575.52 1780.13 A 31.8184 31.8184 0 0 1 1590.32 1800.37 C 1592.73 1810.54 1590.29 1821.93 1584.44 1830.52 C 1578.01 1839.97 1568.96 1844.5 1558.05 1846.8 C 1549.97 1847.1 1541.26 1845.37 1534.32 1841.17 A 31.3188 31.3188 0 0 1 1519.86 1821.05 C 1517.67 1811.18 1519.75 1799.53 1525.43 1791.16 C 1531.94 1781.59 1541.45 1777.52 1552.33 1775.19 z"/>
<path transform="translate(0,0)" fill="rgb(29,40,58)" d="M 1553.67 1787.09 C 1557.38 1786.79 1561.4 1786.52 1565 1787.67 C 1570.01 1789.27 1574.37 1792.72 1576.65 1797.52 C 1579.63 1803.8 1579.16 1811.44 1576.57 1817.76 C 1572.87 1826.8 1566.63 1831.81 1557.89 1835.58 C 1553 1835.52 1548.68 1835.33 1544.16 1833.27 C 1538.61 1830.73 1534.19 1826.36 1532.22 1820.52 C 1530.12 1814.3 1531.09 1807.35 1534.12 1801.61 C 1538.43 1793.47 1545.14 1789.68 1553.67 1787.09 z"/>
<path transform="translate(0,0)" fill="rgb(238,219,217)" d="M 635.985 164.213 C 642.89 163.686 650.492 166.196 656.018 170.352 C 663.701 176.129 668.191 185.188 669.31 194.623 A 39.2135 39.2135 0 0 1 660.719 224.043 C 653.642 232.544 644.234 236.174 633.459 237.211 C 625.237 237.266 618.08 235.91 611.145 231.206 A 31.6311 31.6311 0 0 1 597.666 209.965 C 596.083 199.629 599.817 188.789 605.959 180.528 C 613.744 170.057 623.559 166.098 635.985 164.213 z"/>
<path transform="translate(0,0)" fill="rgb(29,40,58)" d="M 633.518 175.162 C 637.465 175.424 641.228 175.793 644.903 177.37 C 650.521 179.78 655.055 184.045 657.238 189.815 C 659.692 196.3 659.02 203.519 655.918 209.665 C 651.339 218.741 643.696 223.16 634.293 225.984 C 629.299 226.206 625.039 226.04 620.477 223.773 C 615.557 221.328 612.105 217.452 610.402 212.21 C 608.233 205.531 609.437 198.309 612.541 192.138 C 617.088 183.096 624.045 178.078 633.518 175.162 z"/>
<path transform="translate(0,0)" fill="rgb(238,219,217)" d="M 1829.91 232.174 C 1838.39 231.626 1846.44 232.409 1854.03 236.557 A 32.3843 32.3843 0 0 1 1869.63 255.99 C 1872.45 265.859 1870.39 276.348 1865.2 285.064 C 1858.42 296.421 1849.12 301.241 1836.84 304.507 C 1828.49 305.308 1819.47 304.287 1811.95 300.402 C 1804.27 296.433 1798.38 289.599 1796.1 281.207 C 1793.5 271.656 1795.67 260.866 1800.64 252.436 C 1807.18 241.326 1817.61 235.058 1829.91 232.174 z"/>
<path transform="translate(0,0)" fill="rgb(29,40,58)" d="M 1830.28 243.139 C 1836.24 242.775 1841.91 242.805 1847.29 245.798 C 1854.69 249.908 1857.18 257.254 1859.45 264.839 C 1858.55 269.397 1857.61 273.721 1855.34 277.826 C 1850.87 285.922 1844.22 290.286 1835.54 292.942 C 1831.26 293.19 1827.09 293.459 1822.93 292.208 C 1817.07 290.443 1811.98 286.813 1809.26 281.22 C 1806.34 275.214 1806.56 268.212 1809.05 262.108 C 1813.05 252.314 1820.98 247.117 1830.28 243.139 z"/>
<path transform="translate(0,0)" fill="rgb(238,219,217)" d="M 181.93 1417.97 C 193.167 1425.59 202.476 1440.57 210.343 1451.65 C 237.235 1489.52 260.486 1529.94 286.139 1568.66 L 360.259 1681.8 C 375.068 1704.17 390.96 1725.92 404.928 1748.84 C 415.08 1765.49 427.051 1784.7 433.266 1803.18 C 411.279 1788.49 228.129 1501.34 204.077 1460.95 C 196.237 1447.78 186.598 1432.45 181.93 1417.97 z"/>
<path transform="translate(0,0)" fill="rgb(238,219,217)" d="M 1541.63 1438.85 L 1543.09 1439.22 L 1543.5 1441.05 C 1530.44 1462.3 1385.95 1548.83 1357.64 1566.69 C 1314.61 1593.85 1271.93 1621.94 1228.31 1648.13 A 3250.09 3250.09 0 0 1 1122.55 1708.74 L 1122.03 1708.7 L 1121.79 1707.79 C 1130.73 1699.37 1142.25 1692.45 1152.35 1685.37 C 1179.89 1666.07 1208.1 1648.21 1236.26 1629.86 L 1349.15 1557.85 C 1374.49 1541.58 1399.32 1524.47 1424.93 1508.62 C 1463.47 1484.75 1502.84 1462.29 1541.63 1438.85 z"/>
<path transform="translate(0,0)" fill="rgb(238,219,217)" d="M 1588.63 194.456 C 1589.43 194.712 1589.78 194.774 1590.56 195.307 C 1609.03 207.875 1714.45 372.221 1732.87 400.004 C 1766.21 450.3 1800.95 499.856 1832.52 551.302 C 1840.82 564.823 1858.5 593.522 1862.38 607.195 C 1862.09 607.036 1861.78 606.9 1861.5 606.718 C 1847.58 597.696 1785.58 500.001 1771.71 479.401 A 7823.64 7823.64 0 0 1 1656.71 307.185 C 1640.12 281.752 1623.13 256.668 1607.36 230.712 C 1600.63 219.647 1592.09 206.893 1588.63 194.456 z"/>
<path transform="translate(0,0)" fill="rgb(238,219,217)" d="M 1487.76 1560.8 L 1489.39 1561.29 L 1489.94 1562.98 C 1486.14 1570.1 1367.21 1649.11 1352.02 1658.98 A 9605.19 9605.19 0 0 1 1235.73 1731.79 C 1184.81 1763.85 1134.06 1796.7 1082.42 1827.54 A 793.272 793.272 0 0 1 1029.8 1856.19 C 1028.65 1855.85 1029.28 1856.18 1028.26 1854.73 C 1032.59 1847.34 1058.55 1833.35 1066.56 1827.89 A 9448 9448 0 0 1 1487.76 1560.8 z"/>
<path transform="translate(0,0)" fill="rgb(238,219,217)" d="M 257.049 1658.39 C 265.932 1662.9 271.377 1697.37 276.487 1707.91 C 282.722 1720.78 297.288 1726.68 306.99 1736.47 C 307.268 1736.75 307.537 1737.04 307.811 1737.32 C 299.813 1742.99 292.236 1748.36 286.113 1756.13 C 276.268 1768.61 270.673 1785.54 267.662 1800.95 C 266.304 1807.9 265.529 1815.83 262.873 1822.42 C 261.928 1824.76 261.24 1825.24 259.252 1826.65 C 257.019 1826.41 256.156 1826.19 254.463 1824.69 C 250.45 1802.26 241.331 1772.02 220.572 1759.39 C 214.321 1755.59 206.796 1754.27 201.835 1748.61 C 201.89 1748.18 201.812 1747.71 201.999 1747.31 C 203.046 1745.13 211.299 1741.08 213.823 1739.12 A 97.7841 97.7841 0 0 0 228.362 1725.04 C 240.208 1710.9 245.754 1693.78 250.799 1676.33 C 252.551 1670.27 253.829 1663.85 257.049 1658.39 z"/>
<path transform="translate(0,0)" fill="rgb(29,40,58)" d="M 259.325 1695.59 C 261.336 1697.44 262.201 1700.98 263.161 1703.47 C 268.677 1717.77 274.757 1725.83 287.476 1734.54 C 273.91 1747.53 266.883 1761.29 261.993 1779.34 C 260.962 1783.15 260.369 1788.75 258.032 1791.8 L 256.406 1789.66 C 248.779 1770.36 239.809 1758.2 223.081 1746.12 C 241.027 1729.28 248.399 1717.46 259.325 1695.59 z"/>
<path transform="translate(0,0)" fill="rgb(238,219,217)" d="M 963.759 212.961 C 964.19 213.379 964.552 214.416 964.819 214.969 C 964.118 217.123 963.133 218.501 961.371 219.952 C 952.397 227.341 940.84 233.533 930.982 239.822 A 3836.34 3836.34 0 0 1 859.269 284.495 A 17560.8 17560.8 0 0 1 634.82 420.092 L 472.549 513.13 L 471.332 511.597 C 482.096 494.12 667.562 385.245 696.007 368.01 A 7284.76 7284.76 0 0 1 824.616 290.174 A 3877.21 3877.21 0 0 1 963.759 212.961 z"/>
<path transform="translate(0,0)" fill="rgb(238,219,217)" d="M 1761.51 1502.61 C 1763.6 1502.69 1766.16 1502.57 1768.06 1503.53 C 1770.03 1504.53 1770.85 1505.76 1771.57 1507.83 C 1773.01 1511.95 1772.34 1518.82 1772.56 1523.37 C 1773.11 1535.22 1773.86 1548.01 1777.59 1559.35 C 1784.8 1581.23 1803.11 1590.16 1822.32 1599.8 C 1790.89 1622.06 1776.32 1638.76 1771.37 1678.03 C 1770.77 1682.78 1770.44 1691.77 1767.66 1695.73 C 1765.95 1698.15 1763.59 1697.92 1760.97 1698.31 C 1756.26 1692.78 1753.53 1659.5 1749.37 1647.64 C 1739.92 1620.67 1725.08 1623.24 1704.8 1612.28 C 1702.29 1610.92 1701.41 1609.93 1700.49 1607.29 C 1703.13 1600.96 1717.23 1597.1 1723.15 1593.54 C 1755.17 1574.25 1753.58 1534.33 1761.51 1502.61 z"/>
<path transform="translate(0,0)" fill="rgb(29,40,58)" d="M 1764.52 1557.79 C 1766.81 1560.39 1768.12 1565.95 1769.49 1569.27 C 1775.87 1584.78 1785.36 1592.84 1798.46 1602.64 C 1787.66 1611.1 1775.58 1623.38 1770.31 1636.23 C 1768.05 1641.71 1767.37 1647.97 1764.72 1653.25 L 1764.08 1652.39 C 1755.59 1628.94 1748.7 1618.39 1725.41 1607.27 C 1746.3 1593.14 1754.95 1580.88 1764.52 1557.79 z"/>
<path transform="translate(0,0)" fill="rgb(238,219,217)" d="M 1336.72 185.293 C 1343.77 184.297 1351.94 184.91 1358.93 186.182 C 1376.54 189.383 1390.43 198.649 1402.14 211.93 C 1417.88 229.777 1429.17 251.158 1442.42 270.826 L 1520.81 385.193 L 1791.25 771.351 C 1814.2 804.66 1836.21 838.673 1858.87 872.19 C 1873.18 893.354 1905.59 937.167 1913.45 957.673 C 1916.04 964.405 1917.24 971.988 1917.98 979.137 C 1920.01 998.623 1923.35 1089.53 1919.89 1106.04 C 1917.04 1119.64 1909.14 1129.05 1898.92 1137.88 C 1886 1149.02 1870.86 1158.07 1856.54 1167.28 C 1838.95 1178.6 1821.58 1190.39 1803.79 1201.38 C 1793.99 1207.43 1783.81 1212.84 1774.09 1219.04 L 1540.46 1368.66 L 1539.93 1380.06 C 1526.7 1392.28 1509.63 1401.7 1494.6 1411.55 C 1481.54 1420.11 1468.83 1429.32 1455.36 1437.21 L 1442.54 1436.86 C 1388.17 1472.63 1332.83 1507.22 1278.02 1542.34 C 1269.06 1548.08 1237.45 1565.98 1232.78 1570.98 C 1232.42 1573.56 1232.14 1575.58 1230.84 1577.9 C 1219.88 1586.05 1152.29 1630.69 1142.47 1631.69 C 1140.18 1630.67 1139.47 1628.81 1138.3 1626.72 L 1137.75 1625.72 C 1134.83 1624.61 1131.29 1628.16 1128.63 1629.83 L 888.057 1780.89 C 850.374 1804.44 813.638 1828.96 774.976 1850.96 C 756.633 1861.4 738.561 1872.74 718.019 1878.22 C 696.55 1882.17 673.675 1878.63 655.356 1866.26 C 646.412 1860.22 640.328 1852.94 633.967 1844.32 C 622.375 1828.61 611.701 1812.01 600.697 1795.87 A 7788.58 7788.58 0 0 1 546.378 1716.12 L 440.525 1562.04 A 50005.8 50005.8 0 0 1 145.462 1134.63 C 140.625 1127.39 131.572 1115.98 130.145 1107.52 C 130.07 1107.08 130.024 1106.63 129.958 1106.18 C 126.34 1081.97 127.228 1051.11 126.838 1026.2 C 126.555 1008.1 124.777 988.339 127.321 970.406 C 129.089 957.947 133.946 942.807 141.074 932.422 C 145.762 925.59 152.015 919.676 158.801 914.99 C 175.543 903.429 193.393 893.387 210.552 882.451 A 12284.3 12284.3 0 0 1 331.015 805.833 A 44663.6 44663.6 0 0 1 729.601 554.237 L 1064.52 343.418 L 1173.02 275.47 C 1210.89 251.365 1248.4 226.184 1287.48 204.064 C 1303.33 195.094 1318.71 188.325 1336.72 185.293 z"/>
<path transform="translate(0,0)" fill="rgb(29,40,58)" d="M 1705.89 1204.2 C 1709.19 1203.96 1712.37 1203.67 1715.55 1204.81 C 1718.42 1205.84 1719.28 1207.06 1720.53 1209.61 C 1720.69 1213.97 1719.27 1216.86 1717.1 1220.59 C 1703.76 1243.56 1679.13 1257.37 1654.1 1263.77 C 1650.48 1264.59 1645.46 1265.91 1641.97 1264.14 C 1639.91 1263.09 1638.68 1261.54 1638.33 1259.24 C 1637.79 1255.72 1640.16 1251.13 1641.82 1248.2 C 1654.36 1226.08 1682.1 1210.69 1705.89 1204.2 z"/>
<path transform="translate(0,0)" fill="rgb(29,40,58)" d="M 191.526 943.174 C 197.674 942.599 203.672 942.648 209.488 944.952 A 28.9106 28.9106 0 0 1 225.643 960.573 A 28.53 28.53 0 0 1 225.427 983.341 C 221.364 992.454 213.712 997.49 204.654 1000.85 C 198.019 1002.23 191.937 1002.24 185.547 999.697 A 28.0565 28.0565 0 0 1 169.651 983.601 A 29.9211 29.9211 0 0 1 170.435 960.501 C 174.756 950.893 182.108 946.619 191.526 943.174 z"/>
<path transform="translate(0,0)" fill="rgb(238,219,217)" d="M 192.921 961.061 C 195.066 960.719 197.232 960.492 199.404 960.694 C 202.616 960.992 206.062 962.898 207.839 965.642 C 209.603 968.366 210.196 971.245 209.542 974.407 C 208.508 979.409 205.528 981.959 201.39 984.577 C 201.091 984.595 200.792 984.616 200.493 984.63 C 196.239 984.821 191.449 984.125 188.386 980.811 C 186.197 978.441 185.214 975.636 185.452 972.43 C 185.845 967.164 189.069 964.226 192.921 961.061 z"/>
<path transform="translate(0,0)" fill="rgb(29,40,58)" d="M 684.602 1663.15 C 690.248 1662.77 695.564 1662.61 700.996 1664.47 C 709.709 1667.46 717.239 1673.56 721.028 1682.07 A 26.6064 26.6064 0 0 1 720.925 1703.58 C 716.899 1712.75 709.393 1717.63 700.353 1721.06 C 692.122 1722.08 684.244 1722.2 676.6 1718.48 C 669.641 1715.11 664.054 1709.07 661.764 1701.63 C 659.439 1694.07 660.67 1685.42 664.361 1678.5 C 668.871 1670.05 675.79 1666.03 684.602 1663.15 z"/>
<path transform="translate(0,0)" fill="rgb(238,219,217)" d="M 690.152 1680.19 C 693.508 1680.5 696.395 1680.74 699.335 1682.53 C 702.09 1684.2 704.185 1687.53 704.878 1690.63 C 705.607 1693.89 704.929 1697.16 703.022 1699.9 C 700.445 1703.6 697.186 1704.59 692.955 1705.48 C 691.02 1705.03 689.089 1704.59 687.215 1703.92 C 683.12 1702.46 679.677 1699.97 678.014 1695.82 C 676.993 1693.27 676.997 1690.88 678.124 1688.36 C 680.22 1683.67 685.604 1681.53 690.152 1680.19 z"/>
<path transform="translate(0,0)" fill="rgb(29,40,58)" d="M 1337.3 220.249 C 1343.06 220.016 1348.73 220.4 1354.13 222.583 C 1362.35 225.902 1369.08 232.088 1372.3 240.436 A 28.9641 28.9641 0 0 1 1371.64 263.013 C 1367.14 272.89 1359.17 277.065 1349.58 280.711 C 1342.62 281.152 1336.09 280.245 1329.87 276.907 A 32.5929 32.5929 0 0 1 1313.82 257.046 A 29.1357 29.1357 0 0 1 1317.26 233.657 C 1321.68 226.565 1329.25 221.969 1337.3 220.249 z"/>
<path transform="translate(0,0)" fill="rgb(238,219,217)" d="M 1337.01 236.035 C 1339.17 236.004 1341.38 235.948 1343.52 236.185 C 1348.11 236.694 1352.58 239.271 1355.39 242.922 C 1357.4 245.535 1358.4 248.654 1357.89 251.948 C 1357.04 257.341 1353.52 260.661 1349.2 263.56 C 1346.3 263.886 1342.97 263.922 1340.16 262.987 C 1335.4 261.397 1330.91 257.368 1328.81 252.8 C 1327.46 249.871 1327.22 246.524 1328.38 243.494 C 1330.03 239.198 1333.07 237.803 1337.01 236.035 z"/>
<path transform="translate(0,0)" fill="rgb(29,40,58)" d="M 1855.06 935.127 C 1861.64 934.679 1866.27 935.425 1872.21 938.493 A 31.9495 31.9495 0 0 1 1888.09 958.054 C 1890.28 965.719 1889.06 973.819 1885.16 980.722 C 1880.18 989.546 1872.31 994.144 1862.86 996.981 C 1857.07 997.227 1852.33 997.203 1846.95 994.797 A 31.2289 31.2289 0 0 1 1829.9 975.951 A 31.8559 31.8559 0 0 1 1831.81 951.173 C 1836.93 941.506 1845.11 937.923 1855.06 935.127 z"/>
<path transform="translate(0,0)" fill="rgb(238,219,217)" d="M 1856.03 954.798 C 1857.89 954.781 1859.82 954.869 1861.64 955.307 C 1864.7 956.044 1868.24 958.478 1869.8 961.266 C 1871.41 964.14 1871.95 967.076 1871.11 970.268 C 1869.79 975.267 1866.61 977.235 1862.42 979.727 C 1860.75 979.946 1859.01 979.965 1857.33 979.713 C 1854.1 979.226 1850.91 977.078 1849.14 974.344 C 1847.36 971.604 1847.04 968.122 1847.69 964.974 C 1848.71 960.001 1851.98 957.434 1856.03 954.798 z"/>
<path transform="translate(0,0)" fill="rgb(29,40,58)" d="M 979.786 1655.3 C 985.634 1654.7 995.044 1655.02 1000.13 1658.32 C 1002.35 1659.76 1003.89 1661.41 1004.35 1664.1 C 1005.19 1668.97 1002.26 1674.74 999.836 1678.75 C 988.923 1696.82 967.137 1706.57 947.596 1711.75 C 941.477 1712.93 931.809 1714.11 926.242 1710.62 C 923.739 1709.06 922.563 1707.48 921.986 1704.57 C 920.835 1698.76 925.785 1690.15 928.876 1685.62 C 940.294 1668.89 960.278 1658.77 979.786 1655.3 z"/>
<path transform="translate(0,0)" fill="rgb(29,40,58)" d="M 1588.7 1220.88 L 1589.39 1221.5 C 1591.55 1229.24 1589.23 1242.6 1589.14 1250.97 C 1588.91 1274.47 1588.42 1298.21 1589.32 1321.68 C 1573.38 1332.6 1556.6 1342.27 1540.66 1353.25 C 1539.53 1341.22 1540.19 1328.63 1540.11 1316.53 A 2420 2420 0 0 0 1538.88 1252.1 L 1588.7 1220.88 z"/>
<path transform="translate(0,0)" fill="rgb(29,40,58)" d="M 1215.82 1455.74 C 1218.32 1466.43 1216.83 1481.05 1216.83 1492.23 A 2705.76 2705.76 0 0 1 1216.03 1571.14 C 1196.08 1586.4 1172.87 1597.24 1152.6 1612.13 C 1152.05 1598.05 1153.25 1583.33 1153.47 1569.19 A 1503.88 1503.88 0 0 0 1152.96 1497.78 C 1172.36 1482.2 1194.93 1469.3 1215.82 1455.74 z"/>
<path transform="translate(0,0)" fill="rgb(29,40,58)" d="M 1524.8 1259.9 C 1525.93 1262.57 1525.01 1362.48 1525.06 1376.04 C 1501.51 1390.73 1477.67 1405.19 1454.71 1420.78 C 1454.24 1409.75 1454.93 1398.55 1455 1387.5 C 1455.17 1360.36 1455.53 1332.81 1453.79 1305.73 C 1461.58 1299.34 1470.76 1294.31 1479.23 1288.88 A 2863.79 2863.79 0 0 1 1524.8 1259.9 z"/>
<path transform="translate(0,0)" fill="rgb(29,40,58)" d="M 1135.23 1507.88 L 1136.58 1508.62 C 1137.57 1518.88 1136.73 1529.79 1136.63 1540.12 A 3715.15 3715.15 0 0 1 1135.62 1604.15 C 1125.84 1612.45 1114.18 1619.11 1103.38 1626.05 L 1054.42 1657.65 C 1052.24 1648.66 1053.19 1636.97 1053.17 1627.68 C 1053.15 1604.87 1054.24 1581.52 1052.36 1558.8 C 1080.83 1543.59 1108.53 1525.98 1135.23 1507.88 z"/>
<path transform="translate(0,0)" fill="rgb(29,40,58)" d="M 1773.79 1105 C 1777.01 1109.78 1774.41 1187.47 1774.12 1200.62 C 1761.95 1207.74 1750.12 1215.49 1738.26 1223.1 C 1740.2 1219.01 1742.4 1214.77 1742.8 1210.18 C 1743.22 1205.41 1741.57 1201.31 1738.37 1197.8 C 1732.2 1191.04 1723.89 1188.51 1714.94 1188.2 C 1689.56 1187.32 1660.55 1205.81 1642.9 1222.63 C 1631.91 1233.1 1619.52 1248.38 1619.62 1264.31 C 1619.65 1270.02 1621.47 1277 1625.93 1280.9 C 1631.14 1285.44 1639.09 1284.11 1645.41 1283.52 L 1647.09 1284.31 C 1633.25 1293.99 1618.29 1301.79 1604.78 1312.04 C 1604.9 1278.77 1606.08 1245.1 1604.07 1211.88 C 1636 1189.37 1670.53 1169.99 1703.55 1149.11 C 1726 1134.92 1750.23 1116.52 1773.79 1105 z"/>
<path transform="translate(0,0)" fill="rgb(29,40,58)" d="M 1035.06 1569.83 C 1036.06 1570.01 1035.41 1569.81 1036.78 1570.96 C 1037.49 1602.95 1035.64 1635.09 1036.36 1667.16 C 1031.42 1671.26 1026.53 1675.24 1021.21 1678.83 C 1021.74 1675.57 1022.35 1672.25 1022.62 1668.96 C 1023.18 1662.15 1021.2 1654.86 1016.72 1649.62 C 1011.07 1643 1002.42 1640.26 993.96 1639.8 C 970.335 1638.5 942.577 1650.97 925.32 1666.61 C 915.075 1675.89 905.664 1689.6 905.252 1703.81 C 905.054 1710.67 907.257 1717.71 912.119 1722.67 C 919.639 1730.35 929.869 1730.6 939.862 1730.47 C 930.897 1737.24 921.307 1742.95 911.669 1748.68 A 4570.47 4570.47 0 0 0 864.988 1777.38 C 863.303 1763.23 863.404 1748.73 862.897 1734.51 C 862.226 1715.7 861.287 1696.91 861.086 1678.09 C 880.486 1664.64 902.074 1652.95 922.23 1640.59 A 5233.41 5233.41 0 0 0 1035.06 1569.83 z"/>
<path transform="translate(0,0)" fill="rgb(29,40,58)" d="M 1903.32 1009.78 L 1904.02 1010.46 C 1906.25 1019.19 1903.95 1035.85 1903.91 1045.65 C 1903.86 1061.45 1905.01 1077.3 1904.2 1093.1 C 1903.97 1097.61 1903.43 1102.18 1902.17 1106.53 C 1900.25 1113.17 1896.56 1120.09 1891.54 1124.9 C 1883 1133.09 1870.28 1138.65 1860.26 1144.99 C 1837 1159.71 1814.32 1175.72 1790.19 1189 A 58.9833 58.9833 0 0 1 1790.04 1186 C 1789.82 1176.66 1788.54 1094.52 1790.53 1091.62 C 1794.16 1086.33 1808.4 1078.46 1814.27 1074.46 C 1839.99 1056.97 1883.12 1031.1 1903.32 1009.78 z"/>
<path transform="translate(0,0)" fill="rgb(29,40,58)" d="M 1438.02 1315.04 L 1438.43 1315.45 C 1440.7 1323.45 1439.21 1335.84 1439.27 1344.29 A 5484.52 5484.52 0 0 1 1439.23 1421.74 C 1431.7 1428.29 1422.08 1433.17 1413.64 1438.48 L 1369.21 1466.25 L 1232.96 1551.36 C 1231.61 1539.53 1232.52 1527.24 1232.67 1515.36 C 1232.97 1491.92 1233.53 1468.49 1231.96 1445.09 C 1263.4 1426.6 1293.5 1405.94 1324.31 1386.43 C 1362.13 1362.49 1400.52 1339.52 1438.02 1315.04 z"/>
<path transform="translate(0,0)" fill="rgb(29,40,58)" d="M 143.82 988.463 C 151.829 994.74 187.265 1051.37 195.119 1063.19 A 6949.47 6949.47 0 0 0 238.836 1127.52 L 522.275 1536.35 L 613.79 1668.29 L 643.77 1711.37 C 649.406 1719.53 654.742 1728.49 661.102 1736.06 C 667.531 1743.71 676.95 1749.03 686.474 1751.89 C 696.814 1754.99 708.196 1753.94 718.418 1750.82 C 735.659 1745.55 752.029 1734.8 767.643 1725.88 C 792.943 1711.44 818.038 1696.14 843.743 1682.49 C 844.935 1694.32 849.659 1784.43 847.153 1788.89 C 820.569 1802.07 795.25 1818.78 769.81 1834.06 C 754.4 1843.31 738.43 1854.07 721.11 1859.34 C 710.773 1862.49 700.144 1863.23 689.535 1861.01 C 677.241 1858.44 661.832 1851.11 653.541 1841.57 C 645.771 1832.64 639.568 1821.63 632.798 1811.91 A 3684.78 3684.78 0 0 1 586.91 1745.3 L 463.605 1566.89 L 204.095 1190.02 C 191.508 1171.59 178.553 1153.16 165.387 1135.13 C 158.746 1126.04 151.485 1117.35 145.295 1107.94 C 144.023 1085.85 144.936 1063.27 144.799 1041.12 C 144.691 1023.59 143.475 1005.97 143.82 988.463 z"/>
<path transform="translate(0,0)" fill="rgb(29,40,58)" d="M 1251.47 302.723 C 1306.14 319.45 1328.95 343.379 1388.43 324.586 C 1402.86 341.529 1414.97 361.389 1427.92 379.543 L 1524.1 517.038 L 1665.1 717.592 C 1688.92 751.429 1713.63 785.076 1736.54 819.515 C 1738.97 823.162 1740.85 826.316 1740.56 830.776 C 1738.06 835.026 1733.68 838.272 1729.72 841.148 C 1717.82 849.811 1704.67 857.002 1692.29 865.019 C 1649.15 892.977 1604.37 919.496 1562.57 949.375 C 1582.12 963.249 1611.04 975.441 1632.7 986.546 C 1647.96 994.365 1662.79 1002.99 1677.93 1011.03 C 1698.17 1021.78 1718.59 1032.06 1738.67 1043.13 C 1752.94 1050.99 1770.13 1058.62 1782.77 1068.84 C 1785.19 1070.79 1787.83 1072.69 1788.18 1075.86 C 1786.01 1079.05 1783.64 1081.27 1780.51 1083.54 C 1760.13 1098.28 1738.02 1111.29 1716.61 1124.47 L 1635.55 1175.24 L 1289.01 1393.07 L 1187.78 1458.26 A 15261.9 15261.9 0 0 1 865.518 1660.91 C 858.073 1665.55 849.451 1672.05 840.68 1673.58 C 837.601 1674.12 834.371 1673.88 831.762 1671.97 C 822.824 1665.45 819.674 1645.39 817.084 1635.2 A 819.407 819.407 0 0 1 795.717 1516.24 C 793.55 1496.04 792.796 1475.73 790.582 1455.53 A 7200.71 7200.71 0 0 1 675.53 1523.46 C 662.009 1531.25 648.813 1540.21 634.949 1547.32 C 631.922 1548.88 628.686 1550.54 625.229 1550.57 C 619.607 1547.11 615.163 1542.11 611.271 1536.83 C 604.797 1528.05 599.168 1518.53 593.096 1509.45 L 557.392 1457.1 L 435.811 1282.59 L 328.11 1128.13 C 306.292 1097.25 278.834 1063.07 260.333 1030.69 C 265.179 1025.44 270.053 1020.16 274.065 1014.23 C 296.531 980.993 286.096 952.483 279.218 916.638 C 298.151 902.484 320.145 890.967 340.352 878.61 A 13064.6 13064.6 0 0 0 458.441 805.224 L 1010.66 456.839 L 1156.04 364.847 C 1187.99 344.698 1221.08 325.157 1251.47 302.723 z"/>
<path transform="translate(0,0)" fill="rgb(238,219,217)" d="M 1541.8 962.783 C 1543.51 963.04 1543.05 962.788 1544.34 963.554 C 1571.32 979.551 1599.42 993.306 1627.3 1007.62 C 1670.91 1030 1714.52 1052.22 1757.38 1076.01 C 1743.59 1086.62 1728.14 1095.55 1713.38 1104.78 A 3288.08 3288.08 0 0 1 1641.86 1148.91 C 1595.36 1176.99 1549.36 1206.33 1503.54 1235.55 L 1219.29 1415.03 L 1106.42 1487.1 A 5708.25 5708.25 0 0 1 958.094 1581.19 C 935.059 1596.33 911.14 1610.28 887.624 1624.66 C 873.032 1633.59 858.745 1643.48 843.739 1651.65 C 824.278 1578.43 811.587 1503.68 810.696 1427.76 C 823.383 1417.62 837.959 1409.58 851.747 1401.02 L 910.315 1364.42 L 1086.22 1252.95 C 1128.45 1226.23 1169.68 1197.91 1211.6 1170.73 A 10029.6 10029.6 0 0 1 1418.8 1039.54 C 1459.73 1013.9 1500.28 987.471 1541.8 962.783 z"/>
<path transform="translate(0,0)" fill="rgb(29,40,58)" d="M 1581.79 1095.11 C 1588.18 1094.76 1593.41 1095.6 1599.15 1098.62 A 25.9552 25.9552 0 0 1 1611.99 1114.24 A 26.4382 26.4382 0 0 1 1609.5 1134.43 C 1604.95 1142.36 1598.21 1145.88 1589.62 1147.98 C 1583.66 1148.32 1578.24 1147.96 1572.81 1145.24 C 1566.35 1142.01 1561.4 1136.49 1559.22 1129.57 A 26.1293 26.1293 0 0 1 1561.2 1109.09 C 1565.82 1100.81 1573.12 1097.56 1581.79 1095.11 z"/>
<path transform="translate(0,0)" fill="rgb(29,40,58)" d="M 1057.02 1391.16 C 1063.36 1390.9 1068.78 1391.18 1074.44 1394.35 A 26.1869 26.1869 0 0 1 1086.9 1410.78 C 1088.81 1418.14 1087.88 1426.46 1083.78 1432.94 C 1079.27 1440.06 1073.04 1442.99 1065.08 1444.83 C 1058.9 1445.11 1053.39 1444.25 1047.95 1441.13 A 27.8949 27.8949 0 0 1 1034.61 1422.98 C 1033.06 1416.14 1034.14 1408.75 1037.98 1402.83 C 1042.58 1395.76 1049.06 1392.91 1057.02 1391.16 z"/>
<path transform="translate(0,0)" fill="rgb(29,40,58)" d="M 1442.81 1141.13 C 1447.77 1140.97 1452.4 1142.3 1456.82 1144.48 C 1463.84 1147.94 1469.34 1153.96 1471.76 1161.46 C 1474.07 1168.64 1473.36 1176.77 1469.57 1183.32 C 1465.15 1190.93 1458.91 1194.02 1450.66 1196.08 C 1444.68 1196.11 1439.53 1196.09 1434.05 1193.24 A 27.8464 27.8464 0 0 1 1420.15 1176.12 A 26.9965 26.9965 0 0 1 1422.9 1154.51 C 1427.49 1146.91 1434.47 1143.26 1442.81 1141.13 z"/>
<path transform="translate(0,0)" fill="rgb(29,40,58)" d="M 934.328 1495.09 C 940.319 1494.89 945.8 1494.73 951.484 1497.02 A 30.7987 30.7987 0 0 1 968.719 1514.38 A 27.9399 27.9399 0 0 1 967.868 1536.65 C 964.173 1544.36 957.137 1549.22 949.218 1551.8 C 942.802 1553.06 937.056 1552.63 931.009 1549.96 A 30.0806 30.0806 0 0 1 914.986 1533.12 C 912.246 1525.76 912.735 1517.68 916.034 1510.58 C 919.759 1502.57 926.255 1498.06 934.328 1495.09 z"/>
<path transform="translate(0,0)" fill="rgb(238,219,217)" d="M 1257.03 326.797 C 1264.56 326.889 1272.5 331.129 1279.55 333.663 C 1315.43 346.553 1341.77 355.679 1380.34 347.116 L 1715.83 825.31 C 1710.14 829.195 1704.56 832.635 1698.38 835.681 C 1665.42 781.583 1627.23 730.218 1590.61 678.525 L 1469.19 506.239 A 6167.6 6167.6 0 0 1 1410.64 423.346 C 1397.99 405.137 1385.9 385.62 1371.36 368.874 C 1342.47 371.19 1318.78 367.827 1291.67 357.143 C 1281.54 353.148 1271.51 348.503 1261.08 345.335 L 1259.76 344.941 C 1249.93 349.915 1240.69 356.967 1231.32 362.854 C 1206.9 378.206 1182.8 394.114 1158.32 409.339 L 850.796 604.445 L 498.321 825.092 L 384.277 896.382 C 366.389 907.489 336.735 923.645 321.478 936.745 C 324.285 948.311 326.46 960.064 326.38 972.009 C 326.23 994.369 319.597 1010.82 303.603 1026.41 L 630.825 1500.83 C 633.079 1504.05 635.318 1507.31 639.14 1508.48 C 641.283 1507.74 642.758 1507.34 644.284 1505.6 C 643.859 1501.86 642.048 1498.76 640.101 1495.6 C 609.201 1445.36 573.295 1397.44 539.633 1348.99 L 394.241 1138.4 L 348.03 1072.67 C 338.058 1058.48 327.315 1044.24 318.842 1029.1 L 318.096 1027.75 C 319.098 1026.52 320.069 1025.3 320.977 1024 C 339.212 997.853 338.801 970.162 333.623 940.113 C 378.647 913.634 422.441 884.621 466.732 856.907 L 758.607 673.659 L 1113.72 449.763 C 1162.24 419.28 1212.43 383.414 1262.1 356.158 C 1299.16 371.26 1326.32 382.904 1367.47 379.793 C 1382.08 402.07 1397.98 423.507 1413.44 445.202 L 1478.76 537.134 C 1514.74 587.492 1549.8 638.518 1585.19 689.296 C 1620.3 739.676 1655.68 789.655 1689.26 841.091 C 1619.63 887.829 1547.82 931.361 1477.18 976.568 L 995.457 1284.92 L 867.539 1366.26 C 845.56 1380.11 822.55 1393.17 801.316 1408.07 C 792.342 1414.36 791.252 1420.52 789.525 1430.7 C 736.604 1463.58 683.433 1496.76 628.775 1526.66 C 603.862 1487.81 576.507 1450.73 549.774 1413.14 L 471.143 1300.39 C 408.489 1210.96 347.888 1120.01 284.429 1031.15 C 288.162 1022.88 293.608 1015.31 297.649 1007.15 C 309.944 982.332 305.56 956.278 300.163 930.263 C 314.388 919.615 330.284 910.534 345.32 901.023 L 434.15 845.369 L 695.675 681.167 L 1040.95 462.7 A 10908.8 10908.8 0 0 1 1179.4 375.168 C 1205.13 358.955 1230.57 341.786 1257.03 326.797 z"/>
<path transform="translate(0,0)" fill="rgb(29,40,58)" d="M 1319.99 458.747 C 1323.41 459.994 1325.5 464.17 1327.41 467.08 C 1301.12 486.296 1271.83 502.666 1244.5 520.466 L 1011.51 668.959 L 409.527 1049.14 C 407.628 1049.73 406.85 1049.58 404.977 1048.96 C 403.165 1046.78 402.902 1046.83 402.961 1044.04 C 404.758 1040.77 407.569 1038.62 410.642 1036.57 C 431.999 1022.39 454.454 1009.65 476.172 996.001 L 652.05 885.463 L 1126.64 583.546 L 1252.15 503.291 C 1273.46 489.762 1301.23 475.127 1319.99 458.747 z"/>
<path transform="translate(0,0)" fill="rgb(29,40,58)" d="M 1616.61 798.18 C 1619.49 798.026 1621.24 797.406 1623.77 798.954 L 1623.68 801.118 C 1621.47 804.925 1617.81 807.675 1614.25 810.193 C 1591.28 826.472 1565.84 840.455 1541.84 855.274 L 1411.07 937.236 L 864.811 1289.65 C 789.391 1339.03 715.5 1390.65 639.538 1439.24 L 636.646 1439.51 C 634.037 1438.14 633.566 1438.14 632.306 1435.53 L 633.419 1433.01 C 644.268 1424.87 656.225 1417.81 667.598 1410.39 L 731.071 1368.58 A 10515.3 10515.3 0 0 1 969.912 1210.94 L 1422.34 919.385 L 1528.11 852.129 C 1549.29 838.394 1595.27 805.021 1616.61 798.18 z"/>
<path transform="translate(0,0)" fill="rgb(29,40,58)" d="M 1282.2 637.421 C 1291.51 638.094 1300.72 638.036 1310 639.335 C 1337.7 643.214 1365.29 655.729 1386.6 673.82 C 1414.82 697.781 1436.34 734.012 1439.01 771.331 C 1441.25 802.556 1429.57 833.588 1409.04 857.053 C 1387.86 881.249 1324.68 916.626 1294.66 935.996 L 1032.32 1103.52 C 967.516 1145.01 903.463 1188.13 837.6 1227.91 C 823.35 1236.51 810.124 1247.12 795.44 1254.93 C 779.423 1263.45 761.947 1267.89 743.896 1269.02 A 165.809 165.809 0 0 1 634.268 1231.09 C 606.792 1208.43 587.443 1175.62 584.371 1139.86 C 581.835 1110.34 587.209 1081.22 606.828 1058.04 C 616.216 1046.95 627.905 1037.44 639.774 1029.14 C 663.945 1012.23 689.277 996.957 714.277 981.321 L 782.372 938.135 L 988.443 806.93 A 12127.4 12127.4 0 0 1 1155.99 700.935 L 1206.6 669.131 C 1218.57 661.477 1230.43 652.801 1243.01 646.23 C 1255.23 639.841 1268.67 638.511 1282.2 637.421 z"/>
<path transform="translate(0,0)" fill="rgb(238,219,217)" d="M 1278.65 655.436 C 1309.37 652.397 1344.2 664.602 1369 682.102 A 123.647 123.647 0 0 1 1419.17 761.543 A 103.38 103.38 0 0 1 1400.19 839.457 C 1392.04 850.647 1381.39 859.315 1370.11 867.187 C 1357.28 876.149 1343.65 883.879 1330.38 892.174 L 1262.61 934.766 L 1076.7 1052.1 C 1028.8 1082.47 980.333 1112.21 932.831 1143.16 C 886.318 1173.46 837.063 1207.52 788.5 1234.21 C 775.223 1241.51 762.958 1245.4 748.031 1247.78 A 141.025 141.025 0 0 1 646.101 1214.84 C 620.756 1193.61 605.783 1163.94 603.103 1130.99 A 105.217 105.217 0 0 1 627.803 1054.27 C 648.9 1029.89 718.94 990.451 748.697 971.828 C 779.973 952.255 810.874 931.938 841.967 912.06 A 13738 13738 0 0 1 1099.02 749 A 3262.21 3262.21 0 0 1 1197.04 688.488 C 1210.74 680.291 1224.25 671.251 1238.47 664.041 C 1251.01 657.686 1264.84 656.401 1278.65 655.436 z"/>
<path transform="translate(0,0)" fill="rgb(29,40,58)" d="M 1291.47 884.402 C 1294.08 884.393 1296.85 884.271 1299.44 884.552 C 1301.9 884.818 1302.91 885.509 1304.35 887.417 C 1304.28 887.742 1304.25 888.08 1304.14 888.391 C 1302.46 892.909 1295.5 895.774 1291.46 897.882 C 1288.7 898.569 1286.93 899.006 1284.26 897.635 C 1281.76 896.354 1280.72 895.119 1279.6 892.611 C 1279.73 889.895 1279.94 889.445 1281.41 887.141 C 1284.52 884.926 1287.76 884.845 1291.47 884.402 z"/>
<path transform="translate(0,0)" fill="rgb(29,40,58)" d="M 704.774 1034.39 C 732.855 1031.44 761.836 1040.3 784.235 1057.13 C 808.87 1075.64 823.527 1099.45 827.607 1130.11 C 830.668 1153.12 827.22 1177.44 812.565 1196.08 C 795.818 1217.37 767.818 1229.61 741.441 1232.63 C 713.004 1234.6 684.911 1227.06 662.023 1209.83 C 639.833 1193.13 622.319 1165.59 618.743 1137.84 C 615.802 1115.01 621.463 1089.72 635.875 1071.53 C 652.693 1050.29 678.113 1037.57 704.774 1034.39 z"/>
<path transform="translate(0,0)" fill="rgb(238,219,217)" d="M 709.582 1051.42 A 98.4548 98.4548 0 0 1 775.072 1070.79 C 795.725 1086.04 809.923 1108.17 813.474 1133.71 C 816.169 1153.1 814.068 1172.02 801.859 1187.94 C 786.548 1207.91 764.214 1216.86 739.918 1219.92 C 712.575 1220.25 688.511 1211.82 667.215 1194.58 C 647.917 1178.95 636.143 1160.47 633.811 1135.41 A 75.877 75.877 0 0 1 650.623 1080.22 C 666.827 1060.72 684.925 1053.68 709.582 1051.42 z"/>
<path transform="translate(0,0)" fill="rgb(29,40,58)" d="M 706.188 1063.34 C 714.824 1063 735.028 1063.64 741.805 1069.26 C 749.933 1076.01 739.157 1086.12 739.748 1094.22 C 741.393 1096.6 742.137 1096.68 744.856 1097.82 C 753.581 1096.72 753.092 1086.76 759.445 1082.41 C 761.174 1081.23 763.02 1080.86 765.108 1081.27 C 775.061 1083.24 785.54 1095.48 790.8 1103.82 C 794.327 1109.41 799.696 1119.66 797.43 1126.29 C 794.464 1134.96 781.507 1134.3 774.446 1138.28 C 773.03 1140.29 772.116 1141.29 772.651 1143.95 C 773.869 1150.01 790.094 1144.64 796.524 1148.56 C 797.948 1150.41 798.679 1151.83 798.759 1154.23 C 799.24 1168.71 789.768 1180.56 780.209 1190.2 C 771.691 1184.93 764.32 1179.08 754.709 1175.86 C 753.056 1194.47 761.006 1187.92 763.374 1199.47 C 762.506 1200.59 762.448 1200.78 761.223 1201.78 C 754.824 1207.03 736.826 1206.49 728.932 1205.89 C 725.886 1205.25 722.046 1204.73 719.817 1202.31 C 711.713 1193.52 727.301 1183.5 726.322 1174.83 C 726.157 1173.38 725.149 1172.6 723.868 1171.98 C 722.251 1171.19 719.292 1170.86 717.807 1171.93 C 716.408 1172.94 714.809 1175.87 713.759 1177.3 C 707.762 1185.43 702.779 1190.6 693.376 1194.84 L 692.168 1195.37 C 683.721 1191.61 676.444 1187.09 669.704 1180.7 C 664.26 1175.54 655.83 1165.91 656.451 1158.07 C 657.454 1145.4 672.84 1152.6 679.772 1147.75 C 681.044 1145.31 681.056 1144.26 680.651 1141.56 C 676.492 1136.43 665.445 1140.22 658.976 1137.02 C 654.642 1134.87 651.648 1130.99 650.273 1126.4 C 647.428 1116.89 651.224 1103.27 656.109 1094.81 C 658.667 1090.38 662.229 1086.15 667.477 1085.13 C 676.342 1083.4 688.811 1095.42 696.089 1099.91 C 698.73 1099.98 698.59 1099.86 700.605 1098.1 C 702.149 1089.5 690.805 1083.74 688.872 1075.64 C 688.325 1073.35 688.405 1071.22 689.901 1069.28 C 693.363 1064.8 701.043 1063.85 706.188 1063.34 z"/>
<path transform="translate(0,0)" fill="rgb(29,40,58)" d="M 1276.52 671.38 C 1305.13 666.458 1335.16 675.134 1358.44 691.739 C 1381.48 708.168 1397.68 731.332 1402.19 759.473 C 1406.13 784.036 1402.47 808.83 1387.54 829.205 C 1370.69 852.215 1344.6 865.571 1316.89 869.943 A 51.3697 51.3697 0 0 1 1313.06 870.545 C 1283.92 874.222 1252.42 863.794 1229.48 845.944 C 1207.37 828.732 1190.8 802.854 1187.48 774.709 C 1184.61 750.411 1191.06 726.537 1206.29 707.318 C 1223.43 685.689 1249.66 674.421 1276.52 671.38 z"/>
<path transform="translate(0,0)" fill="rgb(238,219,217)" d="M 1277.63 688.388 C 1277.9 688.347 1278.18 688.303 1278.46 688.265 C 1304.54 684.7 1333.26 693.684 1353.86 709.745 C 1371.57 723.554 1383.04 745.879 1385.5 768.08 C 1387.83 789.061 1382.21 808.989 1368.87 825.392 C 1354.06 843.603 1334.33 853.059 1311.25 855.552 C 1311.01 855.588 1310.77 855.64 1310.53 855.659 C 1285.48 857.729 1260.27 849.402 1240.55 834.005 C 1222.07 819.574 1206.73 797.512 1203.98 773.809 C 1201.65 753.716 1208.77 731.525 1221.33 715.8 C 1235.24 698.387 1256.14 690.786 1277.63 688.388 z"/>
<path transform="translate(0,0)" fill="rgb(29,40,58)" d="M 1277.44 699.137 L 1282.6 699.002 C 1291.28 702.726 1288.86 719.994 1292.25 727.73 C 1294.47 729.641 1294.59 729.613 1297.53 729.809 C 1303.44 726.699 1302.34 720.058 1304.27 714.38 C 1305.68 710.251 1307.84 706.626 1310.32 703.076 L 1311.07 702.025 A 124.962 124.962 0 0 1 1340.93 715.241 C 1348.13 719.543 1358.04 725.329 1360.16 733.922 C 1359.11 741.006 1349.74 746.165 1344.86 750.974 C 1342.38 753.429 1341.74 755.079 1341.81 758.52 C 1346.37 763.789 1358.62 760.082 1365.49 761.26 C 1369.39 761.931 1372.82 763.657 1374.94 767.11 C 1379.46 774.463 1377.08 786.923 1375.43 794.958 C 1374.3 800.487 1372.3 807.382 1366.86 810.187 C 1359.06 814.203 1348.98 806.742 1341.79 804.24 C 1339.32 803.379 1338.18 803.251 1335.89 804.455 C 1333.93 810.83 1341.84 821.162 1343.91 827.583 C 1344.02 827.942 1344.13 828.305 1344.24 828.666 C 1339.13 834.133 1333.96 836.697 1327.15 839.404 C 1319.03 841.178 1302.56 844.68 1295.26 839.918 C 1287.05 834.572 1294.18 822.794 1291.93 815.37 C 1291.21 813 1289.62 812.619 1287.61 811.639 C 1280.66 812.974 1277.32 824.151 1272.15 828.855 C 1269.24 831.506 1266.07 832.641 1262.14 832.279 C 1252.11 831.355 1239.91 821.226 1233.5 813.769 C 1236.48 806.918 1242.1 802.016 1242.43 794.155 C 1239.2 786.941 1227.94 789.64 1221.7 785.374 C 1217.89 782.769 1216.22 778.436 1215.69 774.002 C 1215.06 768.754 1215.21 759.234 1219.09 755.291 C 1225.97 748.319 1239.57 755.238 1247.92 754.07 C 1250.05 753.772 1250.17 753.306 1251.33 751.666 C 1250.32 742.544 1234.22 738.378 1230.86 729.593 C 1229.82 726.872 1230.01 724.809 1231.3 722.218 C 1236.5 711.785 1266.67 702.053 1277.44 699.137 z"/>
<path transform="translate(0,0)" fill="rgb(29,40,58)" d="M 1163.54 724.755 C 1164.22 724.894 1164.93 725.022 1165.58 725.277 C 1169.99 727.018 1174.36 732.396 1175.85 736.856 C 1179.12 746.679 1171.62 748.152 1164.28 750.601 C 1142.29 757.936 1107.46 784.45 1086.49 797.677 L 905.892 912.141 A 9447.94 9447.94 0 0 1 819.455 967 C 798.923 979.633 777.445 991.35 757.531 1004.93 C 755.638 1006.22 753.654 1007.62 752.734 1009.8 C 751.866 1011.85 755.37 1013.82 756.796 1014.8 C 762.573 1018.76 769.243 1021.56 775.439 1024.81 C 787.201 1030.98 797.897 1038.32 807.729 1047.28 C 831.575 1069.02 846.066 1097.33 851.823 1129.01 C 853.068 1135.87 852.357 1146.04 855.124 1152.08 L 856.669 1152.49 C 870.928 1148.98 905.701 1123.69 919.209 1113.73 C 895.088 1093.31 850.284 1051.46 832.583 1026.08 C 826.419 1017.24 820.275 1006.28 819.121 995.398 C 818.59 990.395 819.112 986.714 822.535 982.856 C 829.05 975.514 896.454 935.443 908.783 927.735 A 13936.5 13936.5 0 0 0 1072.6 823.7 C 1083.64 816.59 1140.86 777.915 1145.47 776.647 C 1146.56 776.347 1147.71 776.187 1148.84 776.126 C 1155.38 775.776 1159.48 780.692 1163.94 784.732 C 1177.9 799.021 1189.53 816.438 1202.45 831.759 C 1215.06 846.711 1240.46 871.423 1249.23 886.69 C 1252.54 892.447 1253.45 901.138 1253.31 907.655 C 1253.2 912.93 1251.73 918.107 1247.67 921.7 C 1234.6 933.284 1213.7 945.196 1198.6 955.001 C 1159.01 980.716 1118.68 1005.25 1078.94 1030.72 C 1046.91 1051.25 1014.54 1071.79 982.995 1093.04 C 946.582 1117.57 910.218 1143.54 872.239 1165.61 C 867.331 1168.46 861.7 1170.79 855.908 1170.33 C 850.611 1169.92 844.796 1166.16 842.726 1161.19 C 840.058 1154.8 842.174 1142.3 841.67 1135.06 C 840.583 1119.47 833.685 1103.27 826.428 1089.64 C 814.52 1067.28 795.819 1047.01 773.474 1034.77 C 763.693 1029.41 744.632 1024.35 738.255 1015.49 C 736.053 1012.43 735.229 1008.19 735.941 1004.52 C 737.065 998.703 742.006 994.895 746.457 991.479 C 756.179 984.018 767.092 977.785 777.467 971.247 C 796.435 959.294 815.509 947.489 834.334 935.313 L 1059.21 791.118 C 1093.97 768.835 1129.96 748.905 1163.54 724.755 z"/>
<path transform="translate(0,0)" fill="rgb(238,219,217)" d="M 1113.71 854.362 C 1119.7 855.841 1125.98 868.612 1129.56 873.823 C 1138.96 887.536 1149.1 901.046 1160.78 912.908 C 1168.42 920.664 1178.03 928.07 1184.63 936.614 C 1186.17 938.614 1185.68 938.499 1185.38 940.834 C 1184.05 940.467 1184.18 940.537 1182.63 939.909 C 1160.02 930.699 1121.04 884.562 1113.18 861.719 C 1112.03 858.384 1112.22 857.529 1113.71 854.362 z"/>
<path transform="translate(0,0)" fill="rgb(238,219,217)" d="M 934.257 952.905 C 953.067 960.695 974.479 993.995 982.726 1011.94 C 988.339 1024.16 997.532 1052.31 992.652 1065.32 C 990.215 1066.01 988.373 1066.36 985.804 1066.36 C 982.228 1059.34 980.512 1030.22 974.437 1016.54 C 967.987 1002.01 958.449 988.154 948.802 975.574 C 944.362 969.784 938.692 963.761 935.141 957.407 C 934.289 955.881 934.243 954.609 934.257 952.905 z"/>
<path transform="translate(0,0)" fill="rgb(238,219,217)" d="M 1040.62 871.881 C 1041.82 871.952 1042.05 871.814 1043.18 872.956 C 1043.93 873.713 1045.52 881.498 1045.92 882.923 C 1048.6 892.243 1051.86 901.202 1056.15 909.908 C 1070.59 939.219 1092.14 959.884 1116.93 980.408 C 1115.83 983.112 1113.64 984.171 1111.36 985.929 C 1094.91 975.501 1078.68 961.403 1066.37 946.306 C 1052.1 928.79 1044.26 911.49 1037.55 890.099 C 1036.44 886.555 1033.78 880.582 1034.71 876.858 C 1035.48 873.789 1038.09 873.205 1040.62 871.881 z"/>
<path transform="translate(0,0)" fill="rgb(238,219,217)" d="M 864.461 981.899 C 866.259 982.291 865.479 981.987 867.422 983.175 C 902.535 1004.65 936.646 1055.76 946.775 1095.38 L 931.198 1104.89 L 923.925 1098.71 C 896.32 1074.38 848.265 1033.64 837.417 998.489 C 845.697 992.212 855.424 987.057 864.461 981.899 z"/>
<path transform="translate(0,0)" fill="rgb(238,219,217)" d="M 1149.75 794.829 C 1150.08 794.92 1150.42 794.968 1150.73 795.104 C 1153.16 796.162 1224.64 881.537 1229.89 888.336 C 1233.56 893.097 1236.8 897.901 1239.2 903.445 L 1237.4 904.114 L 1239.33 904.417 C 1234.73 911.979 1213.83 923.738 1205.56 929.303 L 1203.06 929.677 C 1194.22 923.812 1186.49 914.074 1179.27 906.297 C 1154.71 879.861 1127.57 851.767 1116.01 816.836 C 1126.45 808.732 1138.22 801.286 1149.75 794.829 z"/>
</svg>