<svg version="1.1" xmlns="http://www.w3.org/2000/svg" style="display: block;" viewBox="0 0 2048 2048" width="1024" height="1024">
<path transform="translate(0,0)" fill="rgb(254,254,254)" d="M 0 0 L 2048 0 L 2048 2048 L 0 2048 L 0 0 z"/>
<path transform="translate(0,0)" fill="rgb(33,37,61)" d="M 989.518 115.422 A 376.032 376.032 0 0 1 998.891 115.046 A 902.49 902.49 0 0 1 1523.67 267.025 C 1564.6 294.109 1603.46 323.68 1639.07 357.524 C 1666.64 383.733 1693.74 410.849 1718.23 439.996 C 1848.64 595.218 1928.96 794.668 1933.8 998 A 913.63 913.63 0 0 1 1677.6 1655.57 A 900.066 900.066 0 0 1 1188.02 1916.78 C 1146.21 1924.46 1102.89 1930.12 1060.35 1931.09 A 890.006 890.006 0 0 1 551.588 1797.72 C 510.156 1772.37 469.651 1743.84 433.229 1711.59 C 244.523 1544.49 130.658 1323.45 115.822 1070.55 A 893.466 893.466 0 0 1 285.953 497.257 C 301.564 475.825 317.543 454.757 335.194 434.944 C 372.487 393.084 411.439 353.818 454.872 318.247 A 921.388 921.388 0 0 1 845.642 133.025 C 893.379 123.316 940.935 118.219 989.518 115.422 z"/>
<path transform="translate(0,0)" fill="rgb(254,254,254)" d="M 1208.76 1661.4 C 1213.89 1665.29 1216.62 1687.6 1219.08 1694.51 C 1220.58 1698.74 1223.19 1702.95 1225.78 1706.62 C 1230.14 1712.79 1232.37 1715.01 1239.86 1716.31 L 1239.65 1717.29 C 1237.17 1718.19 1234.26 1719 1232.06 1720.46 C 1218.75 1729.26 1215.09 1746.59 1211.45 1760.96 C 1208.09 1758.97 1205.85 1745.18 1204.03 1740.72 C 1199.14 1728.72 1191.72 1721.66 1180.07 1716.64 C 1182.42 1715.67 1184.97 1714.72 1187.17 1713.43 C 1205.68 1702.6 1204 1680.36 1208.5 1662.38 L 1208.76 1661.4 z"/>
<path transform="translate(0,0)" fill="rgb(254,254,254)" d="M 1813.23 842.637 C 1816.29 843.093 1817.48 843.632 1819.93 845.511 C 1820.45 846.757 1821.24 847.84 1820.94 849.239 C 1819.95 853.801 1724.64 951.472 1714.11 959.994 C 1711.77 960.138 1710.63 960.073 1708.52 959.017 C 1707.64 957.646 1706.9 957.073 1706.98 955.365 C 1707.13 952.357 1708.23 950.347 1709.99 948.01 C 1720.02 934.71 1734.47 922.552 1746.18 910.565 C 1768.36 887.87 1790.11 864.355 1813.23 842.637 z"/>
<path transform="translate(0,0)" fill="rgb(254,254,254)" d="M 1752.54 1394.56 C 1753.63 1395.08 1754.39 1395.37 1755.4 1396.14 C 1757.49 1397.74 1757.75 1399.67 1757.98 1402.08 C 1755.17 1409.83 1599.94 1567.91 1579.67 1589 A 2854.93 2854.93 0 0 0 1550.11 1620.01 C 1542.55 1628.19 1535 1638.97 1525.83 1645.11 C 1524.55 1644.24 1522.43 1643.01 1521.56 1641.76 C 1520.71 1640.55 1520.17 1639.16 1520.39 1637.68 C 1520.83 1634.74 1522.59 1632.49 1524.58 1630.38 C 1575.84 1575.89 1628.97 1522.97 1680.74 1468.94 A 5151.5 5151.5 0 0 0 1722.31 1424.39 C 1731.7 1414.28 1741.33 1402.68 1752.54 1394.56 z"/>
<path transform="translate(0,0)" fill="rgb(254,254,254)" d="M 1244.06 1510.2 C 1244.7 1510.93 1244.37 1510.39 1244.28 1512.08 C 1230.52 1527.86 1215.24 1542.58 1200.62 1557.58 L 1112.15 1647.37 A 5454.67 5454.67 0 0 1 1024.99 1735.46 C 1012.56 1747.73 1000.19 1761.1 986.961 1772.45 C 984.47 1774.59 982.671 1775.83 979.478 1776.64 C 978.628 1775.59 977.29 1774.21 976.791 1772.97 C 975.904 1770.78 976.185 1769.39 977.048 1767.28 C 979.442 1761.41 1005.22 1737.81 1010.91 1731.97 L 1142.51 1599.57 L 1190.63 1550.4 C 1200.16 1540.61 1209.51 1529.99 1219.88 1521.08 C 1226.62 1515.3 1235.89 1513.44 1244.06 1510.2 z"/>
<path transform="translate(0,0)" fill="rgb(254,254,254)" d="M 1586.78 1279.03 C 1587.2 1278.99 1587.62 1278.89 1588.05 1278.91 C 1590.2 1279.03 1590.45 1279.6 1591.52 1281.24 C 1589.61 1283.86 1587.09 1284.69 1584.08 1285.84 C 1551.04 1298.48 1517.08 1309.32 1483.8 1321.38 L 1154.03 1439.58 C 1065.59 1470.78 976.49 1500.89 889.214 1535.25 C 887.556 1535.65 886.902 1535.53 885.261 1535.24 L 885.238 1533.31 C 886.992 1530.43 889.339 1528.35 892.42 1526.92 C 921.801 1513.31 954.006 1503.27 984.511 1492.44 L 1138.56 1438.59 C 1172.33 1427.02 1205.77 1414.38 1239.41 1402.44 L 1436.19 1332.66 L 1528.54 1299.21 C 1547.92 1292.39 1567.62 1286.45 1586.78 1279.03 z"/>
<path transform="translate(0,0)" fill="rgb(254,254,254)" d="M 1666.03 1357.19 L 1666.4 1358.32 C 1652.43 1374.35 1636.93 1389.13 1622.35 1404.61 L 1530.36 1502.9 C 1498.84 1536.63 1446.03 1593.97 1408.5 1617.4 C 1398.07 1623.92 1385.66 1629.97 1373.14 1630.11 A 34.5507 34.5507 0 0 1 1347.7 1619.69 C 1339.52 1611.32 1336.08 1599.85 1336.15 1588.34 C 1336.41 1546.62 1381.27 1479 1411.03 1449.72 C 1418.1 1446.27 1425.71 1443.62 1433.02 1440.69 C 1407.52 1472.5 1379.36 1504.87 1361.73 1541.88 C 1353.26 1559.66 1343.03 1584.98 1350.57 1604.77 C 1352.59 1610.06 1356.1 1614.23 1361.35 1616.5 C 1374.24 1622.05 1390.28 1614.75 1401.39 1607.95 C 1429.17 1590.96 1454.74 1562.83 1477.76 1539.76 C 1517.89 1499.53 1556.45 1458.02 1595.62 1416.88 C 1609.92 1401.87 1629.81 1378.19 1645.78 1366.4 C 1651.53 1362.16 1659.41 1359.79 1666.03 1357.19 z"/>
<path transform="translate(0,0)" fill="rgb(254,254,254)" d="M 632.973 1503.77 C 640.535 1510.7 678.432 1585.17 684.892 1599.8 C 684.851 1600.04 684.805 1600.28 684.767 1600.53 C 681.14 1623.68 670.67 1652.89 661.287 1674.38 L 657.618 1668.6 C 634.701 1632.61 616.123 1592.76 596.934 1554.67 C 606.39 1536.58 620.716 1520.06 632.973 1503.77 z"/>
<path transform="translate(0,0)" fill="rgb(33,37,61)" d="M 621.065 1544.94 C 622.385 1544.95 623.705 1544.97 625.021 1545.09 C 631.153 1545.65 635.928 1551.36 639.539 1555.87 C 648.413 1566.96 677.284 1614.3 675.504 1626.72 C 674.67 1632.54 670.752 1635.63 666.208 1638.82 C 663.708 1638.9 661.099 1639.04 658.624 1638.62 C 649.992 1637.14 644.66 1628.96 640.216 1622.12 C 632.198 1609.78 607.883 1570.33 611.269 1556.39 C 612.661 1550.65 616.248 1547.9 621.065 1544.94 z"/>
<path transform="translate(0,0)" fill="rgb(254,254,254)" d="M 345.254 886.536 C 353.29 893.358 415.944 1020.12 425.579 1039.13 L 631.161 1445.54 C 653.885 1490.18 674.042 1536.28 697.898 1580.32 C 696.902 1582.98 696.1 1585.7 695.256 1588.41 C 694.608 1588.06 639.467 1484.84 634.943 1476.05 C 586.953 1382.78 541.68 1288.09 493.919 1194.72 L 379.747 970.133 C 368.767 948.224 356.449 926.637 345.964 904.545 C 342.617 897.493 342.672 893.78 345.254 886.536 z"/>
<path transform="translate(0,0)" fill="rgb(254,254,254)" d="M 1745.45 1246.03 L 1746.61 1246.79 C 1734.98 1274.41 1721.37 1301.62 1707.69 1328.29 C 1662.85 1345.79 1616.98 1359.86 1572.34 1377.98 L 1570.9 1377.79 C 1570.52 1375.81 1605.62 1303.45 1610.13 1293.88 C 1629.61 1288.88 1649.04 1280.66 1668.06 1274.03 C 1694.02 1264.97 1720.26 1257.16 1745.45 1246.03 z"/>
<path transform="translate(0,0)" fill="rgb(254,254,254)" d="M 858.043 1561.28 L 858.522 1562.1 C 850.172 1589.66 837.281 1615.8 829.256 1643.44 C 806.939 1652.09 703.719 1692.39 687.238 1692.11 C 683.001 1692.04 677.015 1691.48 674.114 1687.96 C 672.999 1686.62 673.615 1685.41 673.779 1683.79 C 685.734 1651.91 696.638 1619.79 707.641 1587.58 C 711.925 1591.85 715.852 1595.42 721.495 1597.9 C 729.861 1601.57 740.044 1602.18 749.017 1600.81 C 765.437 1598.3 781.913 1590.3 797.425 1584.38 A 5001.22 5001.22 0 0 0 858.043 1561.28 z"/>
<path transform="translate(0,0)" fill="rgb(254,254,254)" d="M 334.289 914.672 C 339.835 920.753 344.901 933.894 349.004 941.687 A 5631.42 5631.42 0 0 1 392.995 1026.73 L 627.277 1490.2 C 614.872 1502.09 604.888 1518.85 595.063 1533.01 L 589.622 1541.5 C 569.507 1506.61 551.622 1470.22 533.127 1434.46 L 418.758 1210.59 L 343.861 1063.17 C 333.916 1043.58 320.684 1023.8 313.087 1003.28 C 302.503 974.695 322.62 940.136 334.289 914.672 z"/>
<path transform="translate(0,0)" fill="rgb(254,254,254)" d="M 1587.35 1301.03 L 1588.12 1301.2 C 1588.82 1303.18 1551.97 1376.22 1547.43 1386.07 C 1518.31 1397.54 1488.39 1407.38 1458.96 1418.08 L 1297.76 1477.04 L 846.417 1641.59 L 845.245 1641.5 C 845.158 1639.63 844.941 1639.95 845.481 1638.58 C 856.305 1611.08 865.721 1582.48 877.949 1555.63 C 909.797 1542.4 942.872 1531.27 975.361 1519.66 A 11148.6 11148.6 0 0 1 1139.44 1461.45 L 1587.35 1301.03 z"/>
<path transform="translate(0,0)" fill="rgb(254,254,254)" d="M 1428.59 1138.9 C 1435.24 1140.68 1562.27 1253.86 1575.1 1266.97 C 1561.65 1272.31 1547.39 1275.9 1533.78 1280.91 L 1357.92 1343.87 A 28998.1 28998.1 0 0 1 991.756 1473.53 C 956.83 1485.64 921.825 1498.44 888.028 1513.47 A 1954.29 1954.29 0 0 0 884.636 1415.96 C 883.311 1391.01 880.523 1364.53 882.829 1339.68 C 910.098 1327.22 938.793 1317.02 966.897 1306.6 A 8529.42 8529.42 0 0 1 1111.06 1255.03 A 17489.5 17489.5 0 0 0 1428.59 1138.9 z"/>
<path transform="translate(0,0)" fill="rgb(33,37,61)" d="M 1167.03 1249.08 C 1170.29 1248.94 1173.39 1248.95 1176.54 1249.91 C 1181.66 1251.46 1186.32 1255.23 1188.82 1259.97 C 1191.08 1264.25 1191.59 1269.11 1190.07 1273.72 C 1188.05 1279.83 1183.67 1282.68 1178.11 1285.3 C 1174.77 1285.45 1171.26 1285.59 1168.02 1284.63 C 1163.04 1283.15 1158.04 1278.89 1155.6 1274.33 C 1153.42 1270.24 1152.86 1265.71 1154.32 1261.28 C 1156.38 1255.02 1161.4 1251.8 1167.03 1249.08 z"/>
<path transform="translate(0,0)" fill="rgb(33,37,61)" d="M 1345.87 1271.21 C 1350.48 1271.11 1355.48 1271.79 1359.72 1273.67 C 1366.74 1276.77 1372.74 1282.81 1375.37 1290.06 C 1377.22 1295.13 1377.44 1300.97 1375.05 1305.92 C 1372.01 1312.21 1366.46 1315.53 1360.07 1317.63 C 1354.07 1317.87 1348.73 1317.33 1343.22 1314.79 C 1336.9 1311.87 1331.65 1306.57 1329.52 1299.87 C 1327.78 1294.39 1328.08 1287.93 1330.86 1282.83 C 1334.04 1276.99 1339.66 1273.15 1345.87 1271.21 z"/>
<path transform="translate(0,0)" fill="rgb(254,254,254)" d="M 1347.07 1286.94 C 1349.98 1287.25 1353.67 1287.38 1356.22 1288.91 C 1359.43 1290.84 1360.26 1292.24 1361.02 1295.85 C 1360.23 1298.84 1359.7 1300.39 1357.64 1302.82 C 1354.81 1302.15 1351.82 1301.5 1349.15 1300.3 C 1346.11 1298.93 1344.98 1297.19 1343.89 1294.16 C 1344.22 1290.91 1345.18 1289.45 1347.07 1286.94 z"/>
<path transform="translate(0,0)" fill="rgb(33,37,61)" d="M 1049.79 1363.16 C 1054.69 1362.6 1059.58 1362.29 1064.35 1363.83 C 1072.15 1366.34 1079.33 1372.17 1082.7 1379.71 C 1084.89 1384.61 1085.43 1390.27 1083.44 1395.33 C 1080.72 1402.23 1075.31 1405.61 1068.74 1408.27 C 1064.81 1408.88 1060.95 1409.45 1057.04 1408.45 C 1048.88 1406.36 1041.57 1400.83 1037.65 1393.33 C 1034.93 1388.12 1033.84 1381.94 1035.82 1376.28 C 1038.14 1369.66 1043.67 1365.93 1049.79 1363.16 z"/>
<path transform="translate(0,0)" fill="rgb(254,254,254)" d="M 1054.75 1377.91 C 1057.97 1377.83 1061.01 1377.76 1064.02 1379.11 C 1067.22 1380.54 1068.43 1382.3 1069.8 1385.43 C 1069.67 1388.91 1069.03 1390.14 1067.09 1393.02 C 1062.89 1393.17 1057.12 1393.27 1053.6 1390.59 C 1051.2 1388.76 1051.12 1387.95 1050.54 1385.17 C 1051.26 1381.88 1052.59 1380.34 1054.75 1377.91 z"/>
<path transform="translate(0,0)" fill="rgb(33,37,61)" d="M 1470.97 1234.15 C 1475.64 1233.64 1479.94 1233.5 1484.53 1234.69 C 1492.15 1236.67 1499.17 1241.5 1503 1248.48 C 1505.95 1253.88 1506.85 1260.4 1504.88 1266.29 C 1502.2 1274.3 1496.36 1278.05 1489.05 1281.46 C 1484.62 1282.06 1480.59 1282.53 1476.19 1281.41 C 1468.01 1279.32 1460.65 1274.26 1456.59 1266.74 C 1453.7 1261.42 1452.94 1255.13 1455.03 1249.39 C 1457.81 1241.74 1463.88 1237.48 1470.97 1234.15 z"/>
<path transform="translate(0,0)" fill="rgb(254,254,254)" d="M 1475.48 1249.05 C 1479.59 1249.36 1483.4 1250 1486.69 1252.69 C 1489.31 1254.83 1489.64 1256.67 1489.87 1259.92 C 1488.6 1263.25 1487.64 1264.29 1484.84 1266.49 C 1479.52 1266.05 1475.01 1265.11 1471.38 1260.8 C 1469.6 1258.69 1469.72 1257.17 1469.82 1254.55 C 1471.35 1251.63 1472.76 1250.67 1475.48 1249.05 z"/>
<path transform="translate(0,0)" fill="rgb(33,37,61)" d="M 948.564 1421.12 C 956.046 1420.56 961.963 1420.83 968.653 1424.59 C 975.503 1428.44 981.228 1434.92 983.296 1442.6 C 984.87 1448.45 984.289 1454.63 981.145 1459.86 C 976.906 1466.92 969.932 1470.07 962.248 1471.92 C 957.395 1472.27 952.664 1472.15 948.019 1470.53 C 939.742 1467.65 932.729 1461.46 929.235 1453.38 C 926.832 1447.82 926.352 1441.51 928.801 1435.88 C 932.505 1427.36 940.394 1424.02 948.564 1421.12 z"/>
<path transform="translate(0,0)" fill="rgb(254,254,254)" d="M 951.952 1435.99 C 953.804 1436.2 955.703 1436.4 957.514 1436.84 C 961.382 1437.8 966.947 1441.72 968.368 1445.55 C 969.228 1447.87 968.951 1450.04 967.715 1452.15 C 966.219 1454.71 962.105 1455.56 959.462 1456.4 C 957.384 1456.55 955.632 1456.62 953.621 1455.99 C 949.997 1454.84 946.305 1451.99 944.787 1448.43 C 943.771 1446.05 943.679 1443.31 944.878 1440.97 C 946.273 1438.25 949.324 1437.16 951.952 1435.99 z"/>
<path transform="translate(0,0)" fill="rgb(254,254,254)" d="M 1384.49 507.142 C 1392.57 506.573 1401.79 508.547 1408.99 512.189 C 1417.1 516.292 1421.59 522.511 1426.1 530.094 C 1442.56 557.795 1456.49 586.944 1470.78 615.795 C 1481.47 637.372 1492.65 658.782 1503.62 680.225 L 1643.01 952.659 A 15778.5 15778.5 0 0 1 1722.66 1108.99 C 1734.49 1132.62 1750.73 1160.98 1758.97 1185.66 C 1762.7 1196.82 1762.74 1206.85 1757.07 1217.48 C 1754.13 1222.99 1750.29 1226.94 1744.91 1230.05 C 1728.1 1239.78 1706.47 1244.81 1688.03 1251.11 C 1661.75 1260.08 1635.56 1269.85 1608.98 1277.88 C 1596.03 1263.45 1581.02 1250.89 1566.51 1238.08 A 4067.06 4067.06 0 0 0 1503.18 1182.47 C 1483.52 1165.76 1462.73 1149.51 1444.69 1131.02 C 1461.22 1124.81 1477.99 1119.22 1494.52 1112.97 C 1513.61 1105.75 1532.5 1097.92 1551.74 1091.12 L 1595.41 1075.46 C 1605.85 1071.8 1616.81 1068.55 1626.8 1063.79 C 1630.33 1062.11 1632.94 1060.01 1635.33 1056.93 C 1643.07 1046.95 1644.29 1033.59 1642.51 1021.45 C 1641.17 1012.32 1638.19 1003.5 1634.3 995.147 C 1625.2 975.625 1614.13 956.785 1604.16 937.68 L 1524.96 788.001 L 1459.47 663.577 C 1448.66 642.725 1439.11 620.725 1427.07 600.572 C 1423.03 593.809 1418.54 588.195 1412.1 583.518 C 1399.34 574.253 1362.68 555.888 1347.1 558.916 C 1336.1 561.053 1324.35 566.161 1313.69 569.732 L 1245.21 592.734 L 1052.27 657.034 A 29061.6 29061.6 0 0 0 672.497 784.79 L 546.077 827.014 C 521.597 835.087 496.281 842.214 472.307 851.651 C 462.935 855.34 457.922 858.961 452.346 867.526 C 437.194 890.801 427.747 914.699 433.751 942.708 C 436.892 957.364 444.699 969.559 451.386 982.737 L 481.425 1041.74 L 561.94 1201.7 C 579.324 1236.57 595.9 1272.18 612.605 1307.39 C 620.93 1324.94 628.705 1343.02 638.059 1360.05 C 642.928 1368.91 648.51 1377.12 657.316 1382.55 C 666.844 1388.43 679.156 1390.32 690.023 1387.72 C 706.628 1383.75 723.358 1374.33 739.549 1368.5 C 762.943 1360.09 786.008 1351.01 809.279 1342.28 C 825.877 1336.06 842.715 1330.39 859.174 1323.81 C 887.329 1312.56 914.93 1299.92 943.215 1288.94 C 992.13 1269.95 1042.53 1253.92 1091.9 1236.03 L 1370.06 1133.49 L 1523.03 1078.27 C 1545.23 1070.45 1568.29 1064.09 1590.07 1055.17 C 1593.64 1053.71 1596.5 1052.01 1599.47 1049.54 C 1603 1046.61 1606.12 1043.16 1608.41 1039.17 C 1613.12 1030.92 1612.79 1020.35 1609.93 1011.53 C 1603.5 991.7 1590.66 972.205 1580.65 953.9 C 1568.02 930.801 1555.86 907.321 1543.8 883.91 A 10639.2 10639.2 0 0 0 1437.3 679.841 C 1427.01 660.756 1417.55 636.272 1405.8 618.806 C 1398.93 608.597 1388.61 600.776 1377.68 595.28 C 1366.43 589.618 1354.05 585.814 1341.45 588.456 C 1319.88 592.979 1298.42 603.197 1277.45 610.276 L 1106.72 669.064 L 593.769 841.951 A 4671.46 4671.46 0 0 1 534.74 862.165 C 518.405 867.624 499.695 872.175 484.954 881.106 A 55.1589 55.1589 0 0 0 465.993 900.483 A 64.7395 64.7395 0 0 0 459.439 950.635 C 465.55 972.984 481.864 999.79 492.243 1020.97 L 567.164 1171.87 C 588.431 1214.42 608.651 1257.54 630.225 1299.93 C 638.062 1315.34 645.318 1331.72 654.237 1346.47 C 658.372 1353.31 663.227 1358.79 670.317 1362.65 C 694.092 1375.58 720.862 1360 744.299 1352.91 L 745.338 1351.75 L 746.8 1352.36 C 746.574 1352.39 746.33 1352.37 746.122 1352.47 C 740.862 1354.9 735.427 1355.89 730.252 1358.19 C 718.592 1363.38 707.14 1369.1 694.764 1372.56 C 683.882 1375.6 672.08 1375.37 662.181 1369.4 C 657.665 1366.68 654.428 1362.74 651.838 1358.2 C 648.876 1353.01 646.897 1347.18 644.285 1341.8 C 635.007 1322.66 625.057 1303.74 615.688 1284.61 L 542.106 1134.72 L 479.64 1011.02 C 469.045 989.882 452.478 962.358 447.298 939.465 C 441.243 912.699 456.23 888.238 469.813 866.493 C 493.204 857.159 519.227 850.766 543.354 843.23 A 4094.43 4094.43 0 0 0 647.449 808.631 L 1172.53 632.57 A 6916.6 6916.6 0 0 0 1285.88 594.209 C 1305.49 587.396 1325.27 579.395 1345.17 573.561 C 1349.44 572.308 1352.95 571.623 1357.34 572.632 C 1372.61 576.134 1405.08 589.561 1413.18 602.9 C 1426.15 624.223 1436.61 647.783 1448.13 669.966 L 1522.21 813.145 A 11529.9 11529.9 0 0 1 1593.19 951.828 C 1603.49 971.899 1616.45 991.941 1624.85 1012.81 C 1627.99 1020.62 1629.78 1029.22 1627.51 1037.52 C 1626.13 1042.56 1623.41 1047.96 1618.71 1050.62 C 1603.04 1059.48 1582.78 1063.97 1565.72 1070.05 A 5115.19 5115.19 0 0 0 1482.8 1100.9 C 1442.76 1115.76 1403.22 1131.85 1363.24 1146.82 L 1107.51 1239.96 A 9349.11 9349.11 0 0 0 951.542 1296.22 C 927.485 1305.19 892.01 1316.8 870.888 1329.59 L 869.68 1330.33 C 864.235 1347.22 867.651 1368.71 868.398 1386.29 C 870.413 1433.73 877.408 1495.51 868.019 1541.13 C 843.435 1550.1 819.022 1559.67 794.588 1569.05 C 779.361 1574.9 762.724 1583.01 746.554 1585.49 C 739.556 1586.56 733.543 1586.07 727.029 1583.2 C 717.133 1578.85 710.361 1571.83 705.037 1562.49 C 690.608 1537.16 678.191 1510.52 665.177 1484.44 L 614.702 1383.8 L 482.282 1121.94 L 394.697 951.014 L 369.978 903.969 C 365.158 894.84 359.19 885.283 355.856 875.52 C 354.54 871.664 354.327 868.015 356.388 864.387 C 363.099 852.575 375.229 845.022 387.342 839.703 C 416.522 826.89 448.26 817.568 478.398 807.075 C 554.085 780.723 630.495 756.609 706.256 730.529 A 21857 21857 0 0 1 1106.15 597.637 L 1291.71 536.998 C 1322.62 526.999 1353.19 515.858 1384.49 507.142 z"/>
<path transform="translate(0,0)" fill="rgb(33,37,61)" d="M 1393.08 519.211 C 1396.01 518.798 1399 518.325 1401.93 518.964 C 1406.77 520.019 1411.33 523.856 1413.67 528.153 C 1415.58 531.66 1416.05 535.731 1414.75 539.535 C 1413.11 544.375 1409.57 546.911 1405.2 549.127 C 1402.33 549.487 1399.6 549.742 1396.72 549.327 C 1392.22 548.68 1387.94 545.795 1385.39 542.064 A 13.9154 13.9154 0 0 1 1383.22 531.067 C 1384.54 525.044 1388.08 522.336 1393.08 519.211 z"/>
<path transform="translate(0,0)" fill="rgb(33,37,61)" d="M 1721.31 1184.04 C 1723.63 1184.04 1726.05 1184.02 1728.32 1184.56 C 1733.3 1185.75 1738.23 1189.16 1740.65 1193.73 C 1742.72 1197.63 1742.99 1202.02 1741.34 1206.13 C 1739.09 1211.74 1734.57 1214.05 1729.37 1216.46 C 1726.32 1216.73 1722.66 1216.44 1719.76 1215.43 C 1715.17 1213.82 1711.25 1209.92 1709.39 1205.46 C 1707.74 1201.51 1707.66 1197.03 1709.43 1193.1 C 1711.82 1187.82 1716.09 1185.82 1721.31 1184.04 z"/>
<path transform="translate(0,0)" fill="rgb(33,37,61)" d="M 721.635 1536.09 C 724.567 1536.04 727.684 1536.18 730.569 1536.72 C 736.451 1537.84 742.648 1542.5 745.779 1547.54 C 747.895 1550.94 748.888 1554.77 747.891 1558.73 C 746.507 1564.21 742.688 1567.26 738.111 1570.14 C 736.388 1570.12 734.661 1570.11 732.946 1569.91 C 726.397 1569.17 719.303 1563.56 715.54 1558.37 C 713.004 1554.87 711.199 1550.43 712.198 1546.06 C 713.372 1540.93 717.295 1538.37 721.635 1536.09 z"/>
<path transform="translate(0,0)" fill="rgb(33,37,61)" d="M 388.058 863.227 C 391.376 862.959 394.85 862.731 398.108 863.583 C 402.523 864.738 406.587 868.241 408.739 872.22 C 411.521 877.364 411.789 883.483 409.808 888.946 C 407.514 895.273 403.535 897.778 397.737 900.685 C 395.578 900.785 393.538 900.56 391.455 899.985 C 385.732 898.405 380.384 893.756 377.612 888.562 C 375.166 883.978 374.288 878.562 376.046 873.582 C 378.12 867.708 382.684 865.576 388.058 863.227 z"/>
<path transform="translate(0,0)" fill="rgb(254,254,254)" d="M 1342.98 601.436 C 1351.1 601.185 1358.18 602.248 1365.78 605.098 C 1375.04 608.569 1386.4 614.847 1392.17 623.045 C 1399.13 632.924 1408.04 652.601 1414 663.969 A 7016.89 7016.89 0 0 1 1462.93 757.813 L 1530.4 887.94 C 1551.07 926.909 1573.35 966.101 1591.56 1006.25 C 1594.94 1013.69 1596.48 1022.27 1593.27 1030.05 C 1591.38 1034.64 1587.69 1038.19 1583.23 1040.29 C 1563.24 1049.68 1540.8 1055.38 1519.98 1062.79 L 1389.02 1110.18 A 28044.4 28044.4 0 0 1 1028.54 1241.39 C 991.717 1254.16 954.54 1265.64 917.599 1278.03 A 4797.72 4797.72 0 0 0 716.245 1350.54 C 712.771 1351.94 709.093 1353.16 705.508 1354.25 C 696.123 1357.09 685.844 1356.45 677.276 1351.51 C 670.695 1347.71 666.001 1341.95 662.215 1335.48 C 646.912 1309.34 634.5 1280.48 621.047 1253.28 L 546.945 1103.96 L 499.148 1007.2 C 490.097 988.77 477.831 968.397 472.831 948.489 C 469.477 935.135 470.522 917.393 478.138 905.551 A 42.7562 42.7562 0 0 1 498.066 889.289 C 527.596 877.617 558.737 868.582 588.884 858.519 L 726.787 811.886 L 1077.26 693.311 L 1272.44 626.196 A 1582.24 1582.24 0 0 0 1314.53 611.179 C 1323.74 607.764 1333.36 603.331 1342.98 601.436 z"/>
<path transform="translate(0,0)" fill="rgb(33,37,61)" d="M 1291.28 775.959 C 1293.87 775.908 1296.04 776.429 1298.27 777.717 C 1298.46 779.943 1298.7 779.231 1297.84 781.091 C 1296.97 782.969 1295.65 784.042 1293.94 785.141 C 1278.82 794.856 1251.76 801.423 1234.23 807.132 A 2136.08 2136.08 0 0 0 1166.35 830.065 L 696.053 993.773 C 693.467 993.664 690.929 993.096 688.931 991.405 L 688.903 989.509 C 691.643 984.592 697.845 981.801 702.937 979.78 C 723.211 971.733 744.787 965.627 765.387 958.229 A 8518.09 8518.09 0 0 1 965.543 888.41 C 1074.24 851.245 1182.24 812.185 1291.28 775.959 z"/>
<path transform="translate(0,0)" fill="rgb(33,37,61)" d="M 1323.26 711.951 L 1326.41 712.304 C 1328.03 713.379 1329.13 713.996 1330.05 715.782 C 1330.83 717.299 1330.27 717.63 1329.73 719.108 C 1327.09 721.854 1323.65 723.399 1320.1 724.68 C 1300.81 731.649 1281.03 737.564 1261.63 744.305 L 992.303 836.754 L 750.833 921.257 C 704.087 937.736 657.423 955.145 610.31 970.531 C 610.185 970.542 610.059 970.578 609.935 970.562 C 607.647 970.275 606.357 969.582 605.198 967.398 C 603.931 965.012 604.232 963.858 605.206 961.644 C 616.615 954.276 641.92 948.102 655.795 943.298 L 757.21 907.24 L 1323.26 711.951 z"/>
<path transform="translate(0,0)" fill="rgb(33,37,61)" d="M 1280.99 830.403 A 143.946 143.946 0 0 1 1378.72 859.367 C 1403.9 878.819 1422.48 907.238 1426.27 939.174 C 1429.51 966.488 1421.52 992.441 1404.35 1013.84 C 1395.09 1025.38 1382.88 1035.67 1369.48 1042.06 C 1358.28 1047.41 1346.05 1051.22 1334.42 1055.57 A 3329.95 3329.95 0 0 1 1258.73 1082.99 L 1086.51 1145.21 L 962.371 1190.8 C 930.472 1202.76 882.295 1223.58 849.251 1227.06 C 813.953 1228.53 776.494 1222.26 748.519 1199.09 C 722.427 1177.48 703.443 1147.12 700.515 1112.9 C 698.269 1086.65 706.798 1058.78 724.018 1038.74 C 734.797 1026.2 747.188 1018.82 762.228 1012.33 C 805.388 993.713 851.69 980.008 896.149 964.756 L 1102.65 892.623 A 5319.81 5319.81 0 0 0 1190.67 860.14 C 1215.11 850.877 1256.41 832.157 1280.99 830.403 z"/>
<path transform="translate(0,0)" fill="rgb(254,254,254)" d="M 1284.69 845.32 C 1312.6 840.797 1346.55 852.968 1368.92 869.083 C 1391.13 885.082 1406.8 908.509 1411.12 935.739 C 1414.81 958.958 1409.45 982.594 1395.36 1001.5 C 1387.21 1012.43 1375.86 1022.25 1363.57 1028.24 C 1351.54 1034.11 1338.28 1037.98 1325.76 1042.67 C 1301.93 1051.6 1278.21 1060.62 1254.24 1069.18 L 1061 1138.24 C 1015.5 1154.5 970.67 1172.53 925.197 1188.86 C 898.789 1198.35 872.94 1208.73 845.052 1212.92 C 815.589 1214.18 786.387 1207.92 762.17 1190.41 A 111.98 111.98 0 0 1 716.602 1117.25 C 713.183 1095.51 718.136 1070.53 731.275 1052.63 C 739.724 1041.12 750.428 1033.38 763.349 1027.52 C 783.439 1018.41 805.005 1011.86 825.816 1004.59 C 868.442 989.692 911.448 975.681 953.946 960.465 A 20163 20163 0 0 1 1180.42 880.172 C 1211.8 869.099 1252.86 850.301 1284.69 845.32 z"/>
<path transform="translate(0,0)" fill="rgb(33,37,61)" d="M 1284.87 860.393 C 1310.49 857.61 1338.16 865.494 1358.98 880.557 C 1379.17 895.168 1392.04 917.716 1395.92 942.229 C 1399.05 962.049 1394.55 981.778 1382.54 997.939 C 1367.28 1018.47 1343.93 1028.37 1319.23 1031.96 A 108.072 108.072 0 0 1 1245.9 1008.31 C 1225.91 992.424 1209.84 968.342 1207.18 942.528 C 1205.14 922.755 1211.53 903.578 1224.05 888.245 C 1239.43 869.399 1261.45 862.729 1284.87 860.393 z"/>
<path transform="translate(0,0)" fill="rgb(254,254,254)" d="M 1283.78 875.331 C 1307.57 873.389 1328.83 876.69 1348.77 890.643 A 78.1731 78.1731 0 0 1 1381.44 941.362 C 1384.26 957.893 1379.83 974.624 1370.11 988.149 C 1357.36 1005.88 1340.28 1013.48 1319.23 1016.8 C 1313.5 1017.29 1305.49 1019.15 1300.58 1015.56 C 1299.33 1012.63 1298.38 1009.62 1295.53 1007.89 C 1289.03 1003.96 1275.47 1001.08 1268.3 1003.39 C 1267.87 1003.53 1267.45 1003.69 1267.02 1003.83 C 1264.34 1002.48 1261.64 1001.11 1259.12 999.472 C 1241.79 988.235 1227.73 967.718 1223.6 947.463 C 1220.5 932.258 1223.37 915.482 1232.24 902.632 C 1244.69 884.614 1263.26 878.992 1283.78 875.331 z"/>
<path transform="translate(0,0)" fill="rgb(33,37,61)" d="M 1242.1 951.54 C 1246.02 952.45 1247.93 953.596 1250.21 956.893 C 1252.88 960.748 1255.42 967.204 1253.96 971.979 C 1253 975.152 1251.49 975.794 1248.99 977.589 C 1246.79 976.919 1244.9 976.307 1243.03 974.921 C 1239.8 972.525 1237.59 969.057 1237.17 965.019 C 1236.6 959.579 1238.72 955.583 1242.1 951.54 z"/>
<path transform="translate(0,0)" fill="rgb(33,37,61)" d="M 1288.28 899.335 C 1292.5 899.707 1295.55 900.205 1298.91 902.878 C 1300.28 905.586 1300.36 905.772 1299.92 908.763 C 1296.49 913.72 1293.56 914.263 1287.82 915.311 C 1286.15 915.134 1284.45 914.988 1282.8 914.629 C 1279.24 913.851 1276.84 912.278 1274.83 909.292 C 1274.73 906.725 1274.73 905.769 1276.44 903.611 C 1278.81 900.612 1284.74 900.092 1288.28 899.335 z"/>
<path transform="translate(0,0)" fill="rgb(33,37,61)" d="M 1334.96 920.463 C 1339.01 920.587 1341.02 921.499 1344.27 923.916 C 1348.62 927.145 1352.61 931.755 1352.84 937.454 C 1352.95 940.3 1350.6 942.298 1348.78 944.169 C 1344.58 943.146 1341.19 941.626 1337.83 938.855 C 1334.43 936.049 1331.2 932.16 1331.23 927.48 C 1331.26 924.216 1332.86 922.668 1334.96 920.463 z"/>
<path transform="translate(0,0)" fill="rgb(33,37,61)" d="M 1345.96 987.038 C 1349.3 988.105 1351.68 989.743 1353.69 992.657 C 1353.89 994.797 1354.07 995.734 1352.97 997.701 C 1349.52 1003.89 1341.49 1006.74 1335.17 1008.87 C 1331.02 1008.05 1328.44 1007.11 1325.91 1003.46 C 1325.84 1001.72 1325.6 1001.03 1326.4 999.406 C 1329.68 992.672 1339.38 989.408 1345.96 987.038 z"/>
<path transform="translate(0,0)" fill="rgb(33,37,61)" d="M 1283.74 882.327 C 1295 880.746 1307 882.104 1317.82 885.482 C 1338.09 891.811 1357.64 905.752 1367.44 924.927 C 1374.53 938.807 1377.38 958.496 1372.26 973.367 C 1370.48 978.547 1367.87 985.345 1362.69 987.8 C 1359.95 987.465 1359.8 987.245 1357.73 985.386 C 1356.91 975.92 1361.4 966.073 1361.52 956.371 C 1361.7 940.946 1355.65 928.554 1345.29 917.557 C 1339.26 912.053 1332.96 907.265 1325.69 903.488 C 1309.8 895.229 1290.43 892.318 1273.22 898.053 C 1253.57 904.604 1244.19 916.133 1235.08 934.042 C 1232.88 938.367 1231.45 942.653 1226.53 944.268 C 1224.88 943.023 1225.01 943.556 1224.51 941.58 C 1221.88 931.08 1228.6 917.178 1234.71 909.024 C 1246.8 892.915 1264.23 885.148 1283.74 882.327 z"/>
<path transform="translate(0,0)" fill="rgb(33,37,61)" d="M 819.63 1019.41 C 844.561 1017.18 872.575 1023.81 892.609 1039.15 C 914.99 1056.29 928.335 1082.63 932.003 1110.29 C 934.806 1131.44 930.72 1153.97 917.487 1171.13 C 900.228 1193.51 869.432 1197.34 843.24 1200.86 C 814.471 1201.87 785.354 1194.73 762.551 1176.39 C 744.233 1161.67 731.637 1138.02 729.383 1114.65 C 727.183 1091.83 734.48 1069.77 749.098 1052.22 C 767.93 1029.62 791.139 1022.06 819.63 1019.41 z"/>
<path transform="translate(0,0)" fill="rgb(254,254,254)" d="M 825.762 1032.45 C 831.856 1032.48 838.113 1032.87 844.114 1033.96 C 867.702 1038.25 888.628 1051.19 902.048 1071.17 C 914.485 1089.68 922.166 1114.64 917.673 1136.92 C 914.053 1154.87 903.262 1169.67 888.054 1179.63 C 900.452 1166.76 908.648 1153.69 911.514 1135.77 C 915.053 1113.66 907.999 1093.8 894.857 1076.08 C 880.708 1057 859.143 1042.34 835.336 1039.07 C 816.992 1036.56 795.887 1039.63 780.857 1051.1 C 776.763 1054.23 771.584 1058.2 770.83 1063.59 C 771.889 1068.63 774.266 1070.77 778.43 1073.67 L 779.373 1074.31 C 784.936 1068.63 790.321 1063.68 797.185 1059.62 C 812.786 1052.19 827.819 1051.31 844.18 1056.49 A 80.3188 80.3188 0 0 1 890.901 1096.26 C 898.679 1111.44 899.696 1130.81 894.298 1146.97 C 889.721 1160.67 881.657 1171.56 868.392 1177.99 C 859.908 1182.1 839.615 1189.57 830.442 1186.45 C 830.679 1184.95 830.957 1183.51 831.309 1182.03 L 831.674 1180.54 C 830.796 1179.3 829.988 1178.21 828.69 1177.35 C 824.715 1174.74 815.824 1173.31 811.383 1174.88 C 807.612 1176.21 806.512 1178.63 805.007 1182.04 C 804.857 1182.38 804.715 1182.72 804.569 1183.06 C 792.448 1177.31 780.428 1171.32 770.257 1162.42 C 755.087 1149.14 746.133 1128.61 745.06 1108.61 A 73.8739 73.8739 0 0 1 764.286 1055.25 C 779.515 1038.45 804.072 1033.61 825.762 1032.45 z"/>
<path transform="translate(0,0)" fill="rgb(33,37,61)" d="M 773.753 1084.64 L 775.023 1085.62 C 775.835 1087.43 776.077 1088.39 775.916 1090.42 C 775.581 1094.66 772.876 1097.81 769.705 1100.32 C 768.445 1099.16 768.165 1098.52 767.475 1097 C 767.561 1091.61 770.226 1088.48 773.753 1084.64 z"/>
<path transform="translate(0,0)" fill="rgb(33,37,61)" d="M 765.426 1135.55 C 766.489 1135.61 767.819 1135.68 768.784 1136.17 C 773.096 1138.4 778.486 1150.24 778.788 1155.04 C 778.99 1158.26 777.441 1158.89 775.329 1160.84 C 773.065 1159.87 770.875 1158.62 769.034 1156.97 C 765.141 1153.47 761.063 1148.59 761.216 1143.01 C 761.31 1139.59 763.224 1137.87 765.426 1135.55 z"/>
<path transform="translate(0,0)" fill="rgb(33,37,61)" d="M 874.534 1144.38 C 876.637 1145.24 878.396 1145.94 879.98 1147.63 C 882.092 1149.88 883.463 1152.87 883.127 1156.01 C 882.398 1162.84 877.882 1166.72 872.911 1170.82 C 871.438 1171.02 870.127 1170.86 868.651 1170.75 C 866.549 1169.22 865.526 1168.74 865.111 1165.94 C 864.006 1158.52 869.754 1149.49 874.534 1144.38 z"/>
<path transform="translate(0,0)" fill="rgb(33,37,61)" d="M 874.203 1089.5 C 875.75 1089.97 877.068 1090.61 878.277 1091.69 C 886.109 1098.74 891.735 1113.24 891.56 1123.61 C 891.492 1127.64 890.26 1128.82 887.533 1131.45 C 885.023 1131.29 882.379 1131.14 880.462 1129.4 C 875.234 1124.63 869.819 1105.11 869.542 1098.06 C 869.389 1094.18 871.691 1092.03 874.203 1089.5 z"/>
<path transform="translate(0,0)" fill="rgb(33,37,61)" d="M 818.187 1061.26 C 822.634 1061.04 827.087 1060.79 831.525 1061.29 C 837.756 1061.99 848.147 1063.35 851.788 1069.14 C 853.179 1071.35 853.065 1073.12 852.543 1075.55 C 850.147 1077.27 849.128 1077.13 846.25 1077.38 C 843.063 1077.2 839.877 1077.2 836.686 1077.17 C 828.374 1077.07 815.948 1078.49 809.744 1072.14 C 808.754 1069.63 808.722 1068.64 809.396 1066.03 C 811.787 1063.21 814.784 1062.47 818.187 1061.26 z"/>
<path transform="translate(0,0)" fill="rgb(33,37,61)" d="M 766.826 1067.54 L 769.63 1069.39 C 770.673 1071.38 771.19 1072.13 770.925 1074.45 C 770.055 1082.08 763.759 1100.48 761.2 1109.03 C 760.126 1112.61 758.833 1113.97 755.558 1115.67 C 753.574 1114.81 751.129 1113.93 749.735 1112.21 C 747.382 1109.29 747.507 1104.16 747.956 1100.66 C 749.511 1088.54 757.414 1075.09 766.826 1067.54 z"/>
<path transform="translate(0,0)" fill="rgb(33,37,61)" d="M 1161.96 902.091 C 1166.97 905.253 1176.5 934.729 1180 942.266 C 1192.1 968.314 1208.57 992.247 1225.9 1015.04 C 1234.78 1026.72 1245.28 1038.48 1252.56 1051.21 C 1230.61 1063.19 1192.87 1073.95 1168.37 1083.34 C 1124.99 1099.97 1081.86 1116.86 1038.19 1132.76 C 1019.46 1139.58 1000.59 1147.44 981.404 1152.8 C 978.342 1153.44 973.989 1154.37 970.9 1153.42 C 968.465 1152.67 966.785 1151.59 965.465 1149.36 C 960.646 1141.21 955.681 1120.22 951.73 1109.72 C 947.549 1098.61 943.686 1086.97 938.391 1076.34 C 924.878 1049.2 906.325 1023.39 890.623 997.355 C 925.893 983.787 962.615 973.4 998.21 960.643 C 1023.16 951.699 1048.39 943.319 1073.23 934.121 C 1102.55 923.269 1132.11 911.318 1161.96 902.091 z"/>
<path transform="translate(0,0)" fill="rgb(254,254,254)" d="M 1078.22 948.009 L 1079.04 948.269 L 1079.24 949.464 C 1068.8 969.73 1068.12 992.925 1073.86 1014.6 C 1081.64 1043.95 1102.1 1067.47 1127.95 1082.55 C 1085.22 1099.67 1041.61 1115.74 998.221 1131.07 A 741.265 741.265 0 0 0 999.943 1116.51 C 1000.41 1104.17 999.278 1091.99 995.705 1080.13 C 984.039 1041.42 956.018 1020.46 922.064 1002.05 C 933.784 998.644 945.056 994.06 956.628 990.218 A 4176.67 4176.67 0 0 0 1078.22 948.009 z"/>
<path transform="translate(0,0)" fill="rgb(254,254,254)" d="M 987.364 159.418 C 1002.83 157.689 1019.61 158.465 1035.21 158.607 A 840.087 840.087 0 0 1 1306.41 207.465 A 872.336 872.336 0 0 1 1711.87 504.115 C 1733.17 532.446 1755.28 563.275 1770.58 595.262 C 1759.63 609.051 1747.06 621.362 1734.76 633.926 A 5091.48 5091.48 0 0 1 1686.99 682.246 C 1650.78 718.392 1615.25 755.235 1578.23 790.553 C 1549.27 730.366 1517.25 671.502 1486.63 612.148 C 1474.41 588.452 1462.88 564.427 1450.1 541.016 C 1445.19 532.022 1440.37 521.87 1434.14 513.717 C 1428.63 506.521 1420.68 501.912 1412.64 498.06 C 1402.27 493.088 1392.37 491.548 1380.99 493.321 C 1345.09 498.914 1309.95 515.213 1275.41 526.283 A 14206.7 14206.7 0 0 0 1019.49 610.382 C 1034.72 594.084 1051.88 579.328 1067.86 563.743 L 1168.85 464.499 L 1199.09 434.631 C 1205.25 428.576 1212.42 422.495 1217.54 415.562 C 1218.02 413.072 1217.9 412.036 1216.94 409.69 C 1214.1 408.237 1212.46 408.934 1209.77 410.632 C 1197.79 418.198 1186.6 432.159 1176.41 442.173 A 6842.09 6842.09 0 0 0 1111.09 506.209 L 1026.06 589.612 C 1018.37 597.076 1005.9 611.505 997.146 616.804 C 984.281 624.594 953.222 631.65 937.391 636.635 L 828.146 672.231 C 866.27 636.988 911.549 589.392 915.368 534.734 C 916.782 514.491 911.181 496.872 897.713 481.584 C 882.276 464.059 859.945 454.341 836.804 453.047 C 786.205 450.217 738.709 484.365 702.621 516.416 C 677.601 538.637 654.346 563.133 630.657 586.765 L 533.157 683.313 L 489.963 726.14 C 483.509 732.424 475.849 738.423 470.062 745.264 C 468.78 746.78 468.133 748.007 468.135 750.069 C 468.138 752.569 468.619 753.686 470.327 755.417 C 474.149 755.566 476.773 753.321 479.54 750.977 C 484.789 746.53 489.14 740.986 494.003 736.114 C 501.931 728.17 510.087 720.435 518.147 712.624 C 553.635 678.237 589.475 643.808 624.158 608.633 C 642.945 589.579 662.059 570.93 681.141 552.174 C 694.469 539.074 707.237 525.591 721.855 513.875 C 747.428 493.379 776.556 472.201 809.253 465.748 C 832.293 461.201 856.918 463.767 876.613 477.298 C 890.675 486.96 901.141 501.407 904.02 518.413 C 909.282 549.493 891.644 581.58 874.507 606.061 C 857.465 628.95 838.883 649.045 817.528 667.969 C 812.166 672.72 806.521 678.347 800.316 681.929 C 787.951 689.067 766.448 693.792 752.39 698.272 A 3905.4 3905.4 0 0 0 691.707 718.552 L 545.513 768.622 C 491.277 786.922 436.392 804.617 382.986 825.248 C 360.974 833.751 346.597 846.098 337.137 867.968 C 331.302 881.459 326.536 895.405 320.995 909.017 C 312.169 930.699 298.579 954.303 295.959 977.631 C 294.705 988.804 296.817 999.001 300.928 1009.37 C 308.622 1028.77 319.723 1047.37 329.1 1066.02 C 354.179 1115.93 380.631 1165.14 405.613 1215.07 A 10717.9 10717.9 0 0 0 572.739 1539.8 C 599.383 1590.15 623.452 1642.64 654.137 1690.7 C 657.458 1695.9 661.671 1699.89 667.447 1702.22 C 675.13 1705.33 685.114 1707.47 693.351 1706.64 C 708.806 1705.08 725.813 1697.12 740.486 1691.94 C 771.714 1680.9 802.679 1669.95 833.227 1657.09 C 820.951 1671.84 805.864 1684.19 792.601 1698.07 C 766.432 1725.46 739.809 1752.19 713.09 1779.03 C 701.233 1790.94 689.935 1803.48 677.762 1815.06 C 663.775 1809.15 650.243 1801.53 636.732 1794.59 C 574.459 1762.61 517.423 1725.09 464.386 1679.34 C 281.58 1521.66 177.611 1316.55 160.131 1075.51 C 144.165 855.338 223.789 629.728 367.888 463.534 A 882.013 882.013 0 0 1 910 166.894 C 935.64 163.125 961.527 161.237 987.364 159.418 z"/>
<path transform="translate(0,0)" fill="rgb(33,37,61)" d="M 550.993 1598.57 C 552.284 1599.11 553.613 1599.96 554.453 1601.12 C 555.135 1602.06 555.968 1603.91 555.756 1605.13 C 555.051 1609.19 507.995 1656.01 501.415 1660.42 C 500.046 1659.67 498.01 1658.39 497.151 1657 C 496.494 1655.94 495.915 1654.58 496.206 1653.32 C 498.26 1644.36 541.93 1604.35 550.993 1598.57 z"/>
<path transform="translate(0,0)" fill="rgb(33,37,61)" d="M 453.308 1350.55 L 456.943 1350.97 C 459.294 1352.97 459.566 1353 460.208 1355.99 C 457.746 1364.86 393.229 1428.29 382.854 1438.51 C 382.412 1438.39 381.945 1438.36 381.529 1438.17 C 379.103 1437.1 377.762 1435.73 376.722 1433.33 C 376.919 1431.17 377.61 1430.11 378.923 1428.45 C 388.692 1416.16 401.145 1404.9 412.037 1393.52 C 425.681 1379.27 438.942 1364.04 453.308 1350.55 z"/>
<path transform="translate(0,0)" fill="rgb(33,37,61)" d="M 354.406 1196.66 C 356.092 1197.16 358.25 1198.14 359.392 1199.59 C 360.166 1200.58 360.962 1201.79 360.616 1203.08 C 358.956 1209.28 294.601 1274.66 288.437 1279.03 C 285.299 1277.8 283.365 1277.08 281.52 1274.23 C 283.547 1265.49 345.426 1203.62 354.406 1196.66 z"/>
<path transform="translate(0,0)" fill="rgb(33,37,61)" d="M 418.716 631.595 C 421.419 632.785 422.753 633.791 423.997 636.495 C 423.471 639.482 423.216 639.997 421.228 642.24 C 413.774 650.649 405.177 658.309 397.252 666.312 A 4848.88 4848.88 0 0 1 338.498 724.956 C 325.12 738.214 307.367 759.212 292.791 769.953 C 291.922 769.488 290.642 768.836 289.883 768.259 C 287.543 766.481 287.34 765.708 286.777 763 C 287.241 761.393 287.76 760.224 288.921 758.989 C 307.914 738.769 328.92 720.345 348.474 700.665 L 392.32 656.138 C 400.465 647.948 408.932 637.721 418.716 631.595 z"/>
<path transform="translate(0,0)" fill="rgb(33,37,61)" d="M 1593.82 524.939 C 1596.55 524.75 1598.17 524.613 1600.78 525.647 C 1606.4 532.571 1605.76 542.261 1610.57 549.114 C 1614.67 554.943 1624.11 560.57 1624.92 567.935 C 1623.96 570.74 1621.66 572.088 1619.34 573.741 C 1607.16 582.413 1607.71 600.904 1600.73 613.069 C 1599.54 613.07 1597.66 613.209 1596.46 612.888 C 1593.12 611.997 1591.68 608.502 1590.7 605.527 C 1588.63 599.298 1588.92 592.512 1586.99 586.326 C 1584.55 578.483 1575.31 573.8 1570.93 566.871 C 1570.3 559.064 1581.26 556.401 1584.92 550.199 C 1585.11 549.881 1585.27 549.548 1585.45 549.224 C 1589.64 541.602 1589.83 532.676 1593.82 524.939 z"/>
<path transform="translate(0,0)" fill="rgb(254,254,254)" d="M 1598.2 546.704 C 1600.14 553.938 1606.25 560.925 1610.34 567.232 C 1605.03 573.92 1600.82 580.166 1597.5 588.063 C 1593.48 580.457 1592.05 574.677 1585.77 568.084 C 1590.85 561.278 1594.59 554.373 1598.2 546.704 z"/>
<path transform="translate(0,0)" fill="rgb(33,37,61)" d="M 778.429 288.577 L 781.968 289.001 C 784.312 290.71 784.694 290.726 785.502 293.462 C 785.013 296.268 783.932 297.669 782.118 299.736 C 771.298 312.063 758.292 323.275 746.645 334.886 A 4261.04 4261.04 0 0 1 664.349 415.773 A 1996.8 1996.8 0 0 0 630.763 448.716 C 623.607 455.823 616.573 463.616 608.601 469.787 C 607.778 469.64 606.173 469.399 605.443 469.06 C 603.318 468.072 603.267 466.608 602.768 464.594 C 603.948 460.472 606.338 457.702 609.225 454.624 C 618.65 444.575 629.159 435.265 639.117 425.734 L 687.753 378.441 C 717.295 349.277 747.689 315.819 778.429 288.577 z"/>
<path transform="translate(0,0)" fill="rgb(33,37,61)" d="M 528.939 469.836 C 529.797 469.742 531.244 469.551 532.07 469.609 C 536.315 469.907 537.168 473.704 538.163 477.21 C 540.219 484.453 541.119 492.188 542.752 499.557 C 546.131 514.81 558.623 524.731 568.738 535.793 C 565.95 541.233 558.199 546.523 553.744 550.932 C 539.833 564.701 540.952 583.077 536.797 600.638 L 531.905 601.045 C 522.327 596.629 523.721 575.151 519.618 565.721 C 514.952 554.996 505.165 545.464 497.832 536.453 C 497.988 535.278 513.816 519.128 515.958 515.551 C 524.673 500.999 523.767 485.235 528.939 469.836 z"/>
<path transform="translate(0,0)" fill="rgb(254,254,254)" d="M 533.303 502.653 C 538.226 515.652 543.501 525.695 552.345 536.504 A 63.1003 63.1003 0 0 0 532.069 567.635 C 525.797 556.488 520.826 546.693 512.527 536.752 C 523.422 527.145 528.49 516.067 533.303 502.653 z"/>
<path transform="translate(0,0)" fill="rgb(33,37,61)" d="M 1337.07 308.776 C 1337.5 308.912 1337.94 309.007 1338.36 309.185 C 1340.8 310.236 1341.94 311.452 1343.01 313.785 C 1340.45 319.936 1321.76 328.875 1315.31 333.787 C 1296.95 347.764 1277.16 370.959 1274.35 394.74 C 1273.23 404.225 1275.21 414.08 1281.36 421.581 C 1288.64 430.461 1299.04 434.236 1310.16 435.287 C 1363.1 440.288 1391.88 397.628 1427.74 368.606 C 1435.56 362.28 1451.81 348.204 1462.02 349.302 C 1464.17 350.776 1464.34 351.105 1465.41 353.503 C 1465.04 356.639 1465.24 356.732 1462.94 358.834 C 1447.23 367.696 1433.52 377.576 1420.04 389.545 C 1401.93 405.618 1386.06 423.47 1363.97 434.384 C 1343.05 444.717 1315.91 449.611 1293.41 441.729 C 1281.96 437.716 1272.35 430.024 1267.27 418.837 C 1261.15 405.357 1262.45 390.492 1267.75 377.031 C 1279.71 346.646 1307.68 321.713 1337.07 308.776 z"/>
<path transform="translate(0,0)" fill="rgb(33,37,61)" d="M 1012 256.552 C 1013.9 256.711 1015.4 257.046 1017.2 257.671 C 1025.59 266.949 1025.75 297.287 1034.32 311.019 C 1039.37 319.099 1057.09 331.965 1058.12 336.026 C 1050.75 345.633 1039.4 349.134 1033.16 360.505 C 1025.72 374.081 1021.35 406.155 1013.48 414.448 C 1011.41 413.837 1009.81 413.518 1008.57 411.63 C 1005.2 406.487 1000.35 377.057 996.618 367.34 C 990.295 350.857 972.672 346.767 966.289 335.3 C 970.259 326.327 984.999 323.207 990.827 314.042 C 1002.28 296.032 1003.19 275.245 1012 256.552 z"/>
<path transform="translate(0,0)" fill="rgb(254,254,254)" d="M 1013.61 286.771 C 1015.43 288.821 1016.1 292.177 1016.98 294.795 C 1022.67 311.673 1026.89 323.592 1041.29 335.181 C 1035.44 340.094 1030.08 344.829 1026.06 351.454 C 1022.83 356.764 1015.11 380.806 1012.68 382.331 C 1007.12 361.589 999.157 348.92 982.583 335.244 A 109.078 109.078 0 0 0 984.956 333.818 C 1001.75 323.37 1009.31 305.298 1013.61 286.771 z"/>
</svg>